<?xml version="1.0" encoding="utf-8"?>
<!-- Generator: Adobe Illustrator 22.0.0, SVG Export Plug-In . SVG Version: 6.00 Build 0)  -->
<svg version="1.1" id="Layer_1" xmlns="http://www.w3.org/2000/svg" xmlns:xlink="http://www.w3.org/1999/xlink" x="0px" y="0px"
	 viewBox="0 0 792 612" style="enable-background:new 0 0 792 612;" xml:space="preserve">
<style type="text/css">
	.st0{fill:#002D3A;}
	.st1{fill:#466B84;}
	.st2{fill:#47667B;}
	.st3{fill:#22526C;}
	.st4{fill:#003358;}
	.st5{fill:#244E31;}
	.st6{fill:#980321;}
</style>
<g>
	<path class="st0" d="M169.8,486.7c-0.4,0-0.7-0.1-1.1-0.2l-0.3-0.2l-11.3-4.6l-12-5.3l-7.4-2.7l-5.9-1.4l-4.3-0.7l-5-0.5l-5.5,0.5
		l-0.7,0.2c-0.2,0.1-0.4,0.1-0.6,0.1l-8.8,0.5c-0.1,0-0.1,0-0.2,0l-10.3-0.2c-0.1,0-0.2,0-0.2,0l-9.4-1c-0.1,0-0.1,0-0.2,0L75,469
		c-0.2,0-0.4-0.1-0.5-0.2l-18.1-7.9c-0.1,0-0.2-0.1-0.2-0.1l-6.6-3.7l-9.7-6c-0.1,0-0.1-0.1-0.2-0.1L28.4,443
		c-0.1-0.1-0.1-0.1-0.2-0.2l-10.8-9.6l-15-10.7c-0.8-0.6-1.2-1.6-1-2.6c0.2-1,1.1-1.7,2.1-1.9l0.6-0.1l0.5-0.6l1.5-4.2
		c0-0.1,0.1-0.2,0.1-0.3l1.5-2.7l0.1-0.5l0-0.8l-1.2-3.5c-0.1-0.2-0.1-0.4-0.1-0.6l-0.1-0.6c0-0.1,0-0.3,0-0.4l0.1-1l0-0.1L5.9,401
		c0-0.1-0.1-0.2-0.1-0.2l-0.2-0.7c0-0.2-0.1-0.3-0.1-0.5l-0.1-1.6c0-0.3,0-0.7,0.2-1l0.4-0.9c0.1-0.3,0.2-0.5,0.4-0.7l1.3-1.5
		l0.5-1.5L8.2,388c0-0.1,0-0.2,0-0.4l0.3-2.6c0.1-0.6,0.3-1.1,0.7-1.5l0.9-0.9c0.3-0.3,0.7-0.5,1.1-0.6l1-0.3c0.1,0,0.3-0.1,0.4-0.1
		l0.8-0.1l0.2-0.2l0.8-1.8l-9.1-11.7c-0.1-0.2-0.2-0.3-0.3-0.5l-0.6-1.3c-0.1-0.3-0.2-0.6-0.2-1l0-1.5c0-0.3,0-0.6,0.2-0.9l0.5-1.4
		c0-0.1,0.1-0.3,0.2-0.4l34.9-59.5c0.1-0.1,0.1-0.2,0.2-0.3l0.9-1.2c0.2-0.3,0.5-0.5,0.8-0.7l1.2-0.6c0.3-0.2,0.7-0.3,1.1-0.3
		l95.2-0.1l-0.1-0.6c-0.2-0.9,0.1-1.8,0.8-2.4l0,0c0-0.2-0.1-0.4-0.1-0.5v-0.5c0-0.2,0-0.4,0.1-0.7c-0.6-0.4-1-0.9-1.1-1.6l-0.3-1.5
		c-0.1-0.5,0-1.1,0.2-1.6l0.5-1.1c0,0,0,0,0,0c-0.1-0.2-0.2-0.4-0.2-0.6l-0.1-0.8c-0.1-0.7,0.1-1.5,0.6-2l0.8-0.9c0,0,0-0.1,0-0.1
		c-0.2-0.4-0.4-0.9-0.3-1.4c0.1-0.8,0.5-1.6,1.3-2l0.5-0.3c0.1,0,0.1-0.1,0.2-0.1c-0.2-0.4-0.2-0.9-0.2-1.4l0.2-1.1
		c0.1-0.5,0.3-1,0.7-1.3c-0.1,0-0.2-0.1-0.3-0.2l-0.7-0.4l-2.1-0.3c-0.9-0.1-1.6-0.7-2-1.5l-0.2-0.4c-0.1-0.3-0.2-0.6-0.2-0.9
		l-0.6,0.3c-1.1,0.5-2.5,0.2-3.2-0.9l-0.5-0.7c0,0-0.1-0.1-0.1-0.1l-0.2,0.1c-0.7,0.4-1.6,0.3-2.3-0.1l-0.1-0.1l-0.5-0.1l-0.6,0
		l-0.6,0.2c-1,0.3-2,0-2.7-0.8c-0.6-0.8-0.7-1.8-0.3-2.7l0.1-0.2l-0.1,0c-0.6-0.3-1.1-0.8-1.3-1.4c-0.2-0.6-0.2-1.3,0.1-2l0.2-0.4
		l-0.1-0.4c0-0.1,0-0.1,0-0.2c-0.3-0.1-0.7-0.3-0.9-0.5c-0.6-0.5-0.9-1.2-0.9-1.9v-0.5c0-0.4,0.1-0.8,0.3-1.2l0.5-0.9l-0.6-1.5
		l-4.8-6.9l-0.6-0.5l-2.5-1.3c-0.2-0.1-0.3-0.2-0.5-0.3l-1.1-0.9c-0.3-0.2-0.5-0.6-0.7-0.9l-0.1,0c-0.2,0-0.5,0-0.7-0.1l-5.3-1.6
		c-0.2-0.1-0.4-0.1-0.5-0.2l-1.4-0.8c-0.2-0.1-0.4-0.2-0.5-0.4l-1.9-1.9l-1-0.5c-0.7,0.3-1.5,0.2-2.1-0.1l-0.4-0.2
		c-0.2-0.1-0.5-0.3-0.6-0.5l-0.8-0.9l-2.5-0.9c-0.3-0.1-0.6-0.3-0.8-0.5l-0.9-0.8c-0.4-0.4-0.7-0.8-0.8-1.3l-0.3-1.3l-0.2-0.3
		l-2.5-3c-0.2-0.2-0.3-0.4-0.4-0.6l-0.3-0.7c0-0.1-0.1-0.2-0.1-0.3l0-0.2l-0.7,0.1c-0.4,0-0.9,0-1.3-0.2l-0.8-0.3
		c-0.3-0.1-0.6-0.3-0.9-0.6l-2.7-3c-0.1-0.1-0.2-0.2-0.3-0.3l-0.7-1.1c-0.1-0.1-0.2-0.3-0.2-0.4l-0.3-0.8c0-0.1-0.1-0.2-0.1-0.3
		l-0.2-0.8l-1-0.3c-0.6-0.2-1.2-0.6-1.5-1.1l-0.3-0.5c-0.2-0.3-0.3-0.6-0.3-0.9l-0.1-1l-0.3-1l-0.3-0.5l-0.9,0l-1.8,0.3
		c-0.3,0-0.6,0-0.8,0l-1.6-0.3c-0.9-0.2-1.7-0.8-2-1.7l-0.3-0.9l-2-0.4c-0.2,0-0.4-0.1-0.5-0.2l-1.8-0.8c-1.1-0.5-1.7-1.7-1.4-2.9
		l0.3-1.2c0.2-0.9,1-1.6,2-1.8l0.6-0.1c0.2,0,0.3,0,0.5,0L98,205l0.1-41.2c0-0.6,0.2-1.2,0.6-1.6l0.6-0.7c0.3-0.4,0.7-0.6,1.2-0.7
		l1.6-0.4c0.2-0.1,0.4-0.1,0.7-0.1l136.3,0.1l0-1.6c0-0.2,0-0.3,0-0.5l0.6-3.1c0.1-0.4,0.2-0.7,0.4-1l1.7-2.3
		c0.3-0.4,0.7-0.7,1.2-0.9l6.6-2.2c0.5-0.2,1.1-0.2,1.6,0l1.7,0.5c0.3,0.1,0.6,0.3,0.9,0.5l1.3,1.1c0.1,0.1,0.1,0.1,0.2,0.2l1,1.1
		l0.5,0.4l0.4-0.1c0.3-0.1,0.7-0.1,1,0l0.8,0.2c0.8,0.2,1.4,0.7,1.7,1.3l0.8,1.6l0.4,0.3l1,0.5c0.1-0.2,0.1-0.4,0.3-0.5l0.3-0.5
		c0.2-0.3,0.4-0.5,0.7-0.7l3.8-2.7l0.2-0.3l1-2.6c0-0.1,0.1-0.2,0.1-0.3l0.4-0.7c0.2-0.3,0.4-0.6,0.7-0.8l1.1-0.9v0
		c0.1-0.1,0.3-0.2,0.4-0.3l1-0.5l0.4-0.3l0.3-0.5l0.1-0.3l0.2-1.6c0-0.1,0-0.2,0.1-0.3l0.2-0.8c0.1-0.2,0.2-0.5,0.3-0.7l1.7-2.7
		c-0.2-0.4-0.4-0.8-0.4-1.2c0-0.8,0.4-1.7,1.1-2.1l2.2-1.6c0.1-0.1,0.3-0.2,0.4-0.2l2.1-0.9l0.4-0.3l0.3-0.5l0.2-0.6l0.1-1.1
		c0-0.1,0-0.2,0-0.3l0.3-1.3c0.1-0.3,0.2-0.5,0.3-0.7l0.8-1.2c0.1-0.1,0.2-0.3,0.3-0.4l2.3-2.5l0.7-1l0.1-0.4l0.3-1.8
		c0-0.2,0.1-0.3,0.1-0.5l0.6-1.7l0.4-2.1c0-0.2,0.1-0.4,0.2-0.6l0.4-0.8c0.1-0.3,0.3-0.5,0.5-0.7l0.6-0.6c0.1-0.1,0.2-0.1,0.3-0.2
		l2.4-1.8c0.5-0.4,1.2-0.5,1.8-0.5l0.8,0.1c0.3,0,0.6,0.1,0.9,0.3l0.5,0.3l1.2-0.4l0.7-0.3c0.1-0.1,0.3-0.1,0.5-0.2l0.5-0.1
		c0.5-0.1,1-0.1,1.4,0.1l0.4,0.1c0.3,0.1,0.6,0.3,0.9,0.5l0.1,0.1l0.4-0.1c0.2-0.1,0.4-0.1,0.6-0.1l4.9,0c0.1,0,0.3,0,0.4,0l0.5,0.1
		c0,0,0.1,0,0.1,0c0.8,0.2,1.4,0.7,1.8,1.4l0.7,0.6c1,0.9,1.2,2.4,0.3,3.4l-1.6,1.9c-0.2,0.2-0.3,0.4-0.5,0.5l-1.1,0.7
		c0.2,0.1,0.4,0.2,0.5,0.4c0.2,0.2,0.4,0.5,0.6,0.8c0.2-0.1,0.4-0.1,0.6-0.2l1.3-0.2c0.3,0,0.5,0,0.8,0l1.8,0.2
		c0.3,0,0.5,0.1,0.7,0.2l2.5,1.1l0.6-0.1l1.9-1.2c0.2-0.1,0.4-0.2,0.7-0.3l2.7-0.8c0.1,0,0.3-0.1,0.4-0.1l0.9-0.1
		c0.6-0.1,1.3,0.1,1.8,0.5l0.4,0.3c0.8,0.5,1.1,1.4,1,2.3l-0.2,1.1c0,0.2-0.1,0.5-0.2,0.7c0.2,0.3,0.3,0.7,0.4,1.1l0.6,9.2
		c0,0.1,0,0.3,0,0.4l-0.6,7.1c0,0.1,0,0.2,0,0.3l-0.3,1.2c-0.1,0.3-0.2,0.5-0.3,0.8l-0.9,1.5l-0.2,0.8c0,0.1-0.1,0.3-0.1,0.4l-3,7.1
		c-0.2,0.5-0.5,0.9-1,1.1l-0.8,0.5l-2.5,4.7l0.3,1.1c0.1,0.3,0.1,0.6,0,0.9l-1,6.5c0,0.1,0,0.2-0.1,0.3l-1.9,6.4
		c0,0.1-0.1,0.2-0.1,0.4l-0.6,1.3c-0.1,0.2-0.2,0.4-0.4,0.6l-1.9,2.1l-0.5,0.9l-0.2,0.8l0.1,0.6l0.1,0.1l2.4,1.2
		c0.5,0.2,0.9,0.6,1.2,1.1l0.3,0.6l2.5,0.4c0.5,0.1,0.9,0.3,1.2,0.6l0.7,0.6c0.9,0.8,1.1,2.1,0.5,3.2l-1,1.5
		c-0.5,0.7-1.3,1.2-2.2,1.2l-2,0c-0.1,0-0.2,0-0.3,0l-0.4-0.1l-3.2,10l-0.7,7.6l-0.1,1.6l-5-0.2l0.1-1.6c0,0,0-0.1,0-0.1l0.8-7.9
		c0-0.2,0.1-0.3,0.1-0.5l3.2-10.1l0.2-1c0.1-0.6,0.4-1.2,0.9-1.6l0.6-0.4c-0.1-0.1-0.1-0.2-0.2-0.3l-0.2-0.4l-2-1
		c-0.3-0.1-0.5-0.3-0.7-0.5l-1-0.9c-0.4-0.4-0.6-0.8-0.7-1.3l-0.3-1.9c-0.1-0.3-0.1-0.6,0-1l0.4-1.7c0.1-0.3,0.1-0.5,0.3-0.7
		l0.8-1.4c0.1-0.1,0.2-0.3,0.3-0.4l1.8-2.1l0.4-0.8l1.8-6.1l0.9-5.8l-0.4-1.6c-0.1-0.6-0.1-1.2,0.2-1.7l3.3-6
		c0.2-0.4,0.5-0.7,0.9-0.9l0.7-0.4l2.6-6.2l0.2-1c0.1-0.3,0.2-0.5,0.3-0.8l0.9-1.5l0.1-0.7l0.6-6.8l-0.4-5.4l-0.6,0.2
		c-0.6,0.2-1.2,0.2-1.7,0.1l-0.6-0.2c-1.1-0.3-1.8-1.3-1.7-2.4l0-0.1l-0.9,0.1c-0.4,0.1-0.7,0-1.1-0.1l-1-0.3
		c-0.1,0-0.2-0.1-0.3-0.1l-1.9-0.9l-1-0.1l-0.6,0.1l-0.8,0.3l-2.2,1.5l-1.1,1.2c-0.1,0.1-0.3,0.3-0.4,0.4l-0.7,0.5
		c-0.4,0.3-0.8,0.4-1.3,0.4l-0.6,0c-0.9,0.1-1.8-0.4-2.3-1.1l-0.2-0.3c-0.5-0.8-0.5-1.8,0-2.6c-0.5-0.2-1-0.5-1.3-0.9l-0.9-1.2
		c-0.6-0.8-0.6-1.7-0.2-2.6l0.6-1.1c0.2-0.4,0.5-0.7,0.8-0.9l4.5-3l-1.8,0l-0.2,0.1c-0.2,0.1-0.5,0.2-0.8,0.3l-0.5,0.1
		c-0.6,0.1-1.2,0-1.7-0.3l-0.6-0.3c-0.1-0.1-0.2-0.1-0.3-0.2c-0.1,0-0.1,0.1-0.2,0.1l-1.6,0.5c-0.2,0.1-0.3,0.1-0.5,0.1l-0.7,0.1
		c-0.3,0-0.6,0-1-0.1l-0.8-0.2c-0.1,0-0.3-0.1-0.4-0.1l-1.5,1.1l-0.1,0.1l-0.4,2c0,0.2-0.1,0.3-0.1,0.4l-0.6,1.6l-0.3,1.7
		c0,0.1,0,0.2-0.1,0.3l-0.3,0.9c-0.1,0.2-0.2,0.4-0.3,0.6l-1,1.5c-0.1,0.1-0.2,0.2-0.2,0.3l-2.3,2.5l-0.4,0.7l-0.2,0.8l-0.1,1.1
		c0,0.1,0,0.2-0.1,0.4l-0.3,1.2c-0.1,0.3-0.2,0.5-0.3,0.8l-0.8,1.2c-0.2,0.2-0.4,0.5-0.6,0.6l-0.9,0.7c-0.1,0.1-0.3,0.2-0.4,0.3
		l-2.1,0.9l-0.5,0.3c0.1,0.4,0,0.7-0.1,1.1l-0.3,0.9c-0.1,0.2-0.2,0.4-0.3,0.6l-1.8,2.8l-0.1,0.3l-0.2,1.6c0,0.1,0,0.2-0.1,0.4
		l-0.2,0.8c-0.1,0.2-0.2,0.5-0.3,0.7l-0.8,1.1c-0.1,0.2-0.3,0.3-0.4,0.5c-0.1,0.1-0.1,0.1-0.2,0.2l-0.9,0.7
		c-0.1,0.1-0.2,0.1-0.3,0.2l-0.9,0.5l-0.7,0.6l-1.1,2.9c-0.1,0.3-0.3,0.6-0.5,0.8l-0.7,0.8c-0.1,0.1-0.3,0.3-0.4,0.4l-3.5,2.5
		l-0.2,1.1c-0.1,0.4-0.2,0.7-0.4,1l-0.5,0.6c-0.3,0.4-0.8,0.8-1.3,0.9l-0.7,0.2c-0.6,0.2-1.3,0.1-1.9-0.2l-3.2-1.7
		c-0.1,0-0.2-0.1-0.3-0.2l-1-0.7c-0.3-0.2-0.6-0.5-0.8-0.9l-0.4-0.8c-0.1,0-0.2,0-0.3,0l-0.9-0.1c-0.4,0-0.9-0.2-1.2-0.5l-1.3-1
		c-0.1-0.1-0.2-0.2-0.3-0.3l-1.1-1.1l-0.8-0.7l-0.4-0.1l-5,1.7l-0.9,1.2l-0.4,2.3l0,3.9c0,0.7-0.3,1.3-0.7,1.8
		c-0.5,0.5-1.1,0.7-1.8,0.7h0l-138.5-0.1l0,0l-0.1,42.3c0,0.7-0.3,1.3-0.7,1.8c-0.5,0.5-1.1,0.7-1.8,0.7l-26.9-0.2l0.1,0.4l1.3-0.2
		c0.2,0,0.4,0,0.5,0l2.1,0.1c0.6,0,1.1,0.2,1.5,0.6l0.8,0.7c0.2,0.2,0.4,0.4,0.6,0.7l0.7,1.3c0.1,0.1,0.1,0.3,0.2,0.4l0.4,1.4
		c0,0.1,0.1,0.3,0.1,0.4l0,0l0.2,0c0.2,0.1,0.4,0.1,0.6,0.3l0.7,0.4c0.4,0.2,0.7,0.5,0.9,0.9l0.3,0.6c0.1,0.2,0.2,0.4,0.2,0.6
		l0.4,1.3l0.2,0.5l0.5,0.7l2.1,2.2l1-0.1c0.2,0,0.5,0,0.7,0l0.8,0.2c0.6,0.1,1.1,0.4,1.5,0.9l0.4,0.5c0.2,0.3,0.4,0.6,0.5,1l0.4,1.5
		l2.5,3c0.1,0.1,0.2,0.3,0.3,0.5l0.4,0.8c0.1,0.2,0.2,0.4,0.2,0.6l0.2,0.8l2.3,0.8c0.4-0.4,1.1-0.6,1.6-0.6l1.3,0c0.1,0,0.3,0,0.4,0
		l1.1,0.2c0.9,0.2,1.7,0.8,2,1.7l0.2,0.6c0.1,0.4,0.1,0.9,0,1.3l1.7,1.7l0.9,0.5l4.4,1.3c0.8-0.6,1.9-0.7,2.8-0.2l1.1,0.6
		c0.8,0.4,1.3,1.3,1.3,2.1v0.4l2.3,1.1c0.2,0.1,0.3,0.2,0.4,0.3l1.1,0.9c0.2,0.2,0.4,0.3,0.5,0.5l5.2,7.4c0.1,0.2,0.2,0.4,0.3,0.6
		l1.1,2.8c0.1,0.1,0.1,0.3,0.1,0.4l0.4,0.2c0.9,0.5,1.4,1.6,1.2,2.6l-0.3,1.1c0,0.1-0.1,0.2-0.1,0.3l-0.3,0.7l0.1,0.5
		c0,0,0.1,0,0.1,0.1l0.9,0.5c0.7,0.4,1.1,1.2,1.2,2l0,0.3l1.3-0.4c0.2-0.1,0.5-0.1,0.7-0.1l0.7,0c1,0,1.9,0.6,2.3,1.5
		c0.3,0,0.7,0,1,0.1l0.9,0.2c0.3,0.1,0.5,0.2,0.8,0.4l0.7,0.5c0.1,0.1,0.2,0.2,0.3,0.2l0.5,0.4c0.2,0.2,0.4,0.5,0.5,0.8l0.4,0.8
		l0.6,0.1c0.2,0,0.5,0.1,0.7,0.2l0.8,0.3c0.1,0.1,0.2,0.1,0.4,0.2l0,0l0.1-0.1c0.5-0.2,1.1-0.3,1.6-0.2l0.4,0.1
		c1,0.2,1.8,1.1,1.9,2.1l0.2,1.1c0,0.1,0,0.2,0,0.3l0,0.7l0.6,1.1c0.5,0.9,0.5,2-0.2,2.8c-0.3,0.4-0.6,0.6-1.1,0.8c0,0,0,0.1,0,0.1
		l-0.5,1.3c-0.1,0.4-0.3,0.7-0.6,1l-0.1,0.1c0.1,0.2,0.1,0.5,0.1,0.8l0,0.8c0,0.8-0.4,1.5-1.1,2c0,0.4-0.1,0.8-0.4,1.2
		c-0.1,0.1-0.1,0.2-0.2,0.3c0,0.2,0.1,0.3,0.1,0.5c0,1-0.5,1.9-1.4,2.3l-0.4,0.2l0.7,0.4c0.4,0.2,0.7,0.5,0.9,0.8l0.5,0.8
		c0.4,0.6,0.5,1.4,0.3,2.1c-0.1,0.4-0.3,0.7-0.6,1c0,0.2,0,0.3,0,0.5c0,0.4-0.1,0.7-0.3,1c0.3,0.6,0.4,1.3,0.2,2l-0.2,0.7
		c0,0.1-0.1,0.2-0.1,0.2l-0.5,1.1c-0.1,0.1-0.1,0.3-0.2,0.4l-0.3,0.4c-0.3,0.4-0.6,0.7-1.1,0.8c-0.1,0-0.1,0.1-0.2,0.1l-1.4,0.5
		c-0.2,0.1-0.4,0.1-0.6,0.1l-1.5,0.2c-0.1,0-0.2,0-0.3,0l-94.8,0.1l-0.2,0.1l-0.5,0.6L9.3,363.3L9.1,364l0,0.5l0.3,0.5l9.8,12.6
		c0.6,0.7,0.7,1.7,0.3,2.5l-1.5,3.5c-0.1,0.2-0.2,0.4-0.4,0.6l-0.8,0.9c-0.3,0.3-0.6,0.5-0.9,0.7l-1,0.4c-0.2,0.1-0.5,0.2-0.7,0.2
		l-0.8,0.1l-0.1,1.4l0.2,4.7c0,0.3,0,0.7-0.2,1l-0.9,2.3c-0.1,0.3-0.3,0.5-0.4,0.8l-1.4,1.6l0,0.9l0.1,0.3l0.7,1.8
		c0.1,0.2,0.1,0.4,0.1,0.7l0,0.6c0,0.1,0,0.3,0,0.4l-0.1,0.9l0,0l1.3,3.6c0.1,0.2,0.1,0.5,0.1,0.7l0.1,1.5c0,0.2,0,0.5-0.1,0.7
		l-0.3,1.2c-0.1,0.2-0.1,0.4-0.2,0.6l-1.6,2.9l-1.6,4.4c-0.1,0.3-0.2,0.5-0.4,0.7l-0.4,0.5l12.1,8.7c0.1,0.1,0.1,0.1,0.2,0.2
		l10.8,9.6l11,8l9.6,5.9l6.4,3.6l17.8,7.8l11.2,2.2l9.2,1l10.1,0.2l8.4-0.5l0.6-0.2c0.2,0,0.3-0.1,0.5-0.1l6-0.6c0.2,0,0.3,0,0.5,0
		l5.3,0.5c0.1,0,0.1,0,0.2,0l4.4,0.7c0.1,0,0.1,0,0.2,0l6.2,1.4c0.1,0,0.2,0.1,0.3,0.1l7.6,2.8c0,0,0.1,0,0.1,0.1l12.3,5.4l6.4,2.6
		l-0.1-0.2c-0.1-0.2-0.1-0.4-0.1-0.7l0-1.2c0-0.1,0-0.3,0-0.4l0.2-1.3c0-0.1,0.1-0.3,0.1-0.4l0.4-1.2c0-0.1,0.1-0.3,0.2-0.4l0.6-1.1
		c0.1-0.2,0.3-0.4,0.4-0.6l0.9-0.9c0.2-0.2,0.4-0.3,0.6-0.5l1.9-1l0.4-0.3l0.4-0.6l0.4-1c0-0.1,0.1-0.2,0.1-0.3l0.7-1.1
		c0.1-0.2,0.3-0.4,0.5-0.6l1.1-1c0.1-0.1,0.1-0.1,0.2-0.2l7.2-5l1.5-1.5c0.1-0.1,0.3-0.2,0.4-0.3l0.8-0.5c0.2-0.1,0.3-0.2,0.5-0.2
		l3.4-1.3c0.2-0.1,0.5-0.1,0.7-0.2l1.1-0.1c0.3,0,0.5,0,0.8,0.1l1.4,0.4c0.3,0.1,0.5,0.2,0.8,0.3l0.1-0.3c0.1-0.1,0.1-0.3,0.2-0.4
		l3.3-5.7c0.1-0.2,0.2-0.3,0.3-0.5l1.5-1.7c0.1-0.1,0.2-0.2,0.3-0.3l1.9-1.5c0.2-0.1,0.3-0.2,0.5-0.3l2-0.9l2.1,4.5l-1.8,0.8
		l-1.5,1.2l-1.2,1.3l-2.9,5.1l0.3,0.7c0.2,0.4,0.2,0.8,0.2,1.2l0,0.4c-0.1,0.8-0.6,1.6-1.3,2l-1.1,0.6c-0.7,0.4-1.4,0.4-2.1,0.1
		l-1.1-0.5c-0.2-0.1-0.4-0.2-0.6-0.3l-1.6-1.2l-0.5-0.1l-0.3,0l-2.8,1.1l-0.4,0.2l-1.5,1.4c-0.1,0.1-0.2,0.2-0.3,0.3l-7.3,5
		l-0.7,0.6l-0.4,0.6l-0.5,1c-0.1,0.1-0.1,0.2-0.2,0.3l-0.7,1.1c-0.1,0.2-0.3,0.4-0.5,0.6l-0.9,0.7c-0.1,0.1-0.3,0.2-0.4,0.3
		l-1.8,0.9l-0.4,0.4l-0.3,0.6l-0.3,0.8l-0.1,0.8l0,0.7l1.5,4.9c0.3,0.9,0,2-0.8,2.6C170.9,486.5,170.3,486.7,169.8,486.7"/>
	<polygon class="st1" points="774.5,339.2 774.5,409.3 739.8,339.2 717.4,339.2 717.4,434.8 734.9,434.8 734.9,365.8 769.4,434.8 
		792,434.8 792,339.2 	"/>
	<path class="st1" d="M693.9,355c-2.9-5.3-7.1-9.5-12.5-12.4c-5.4-2.9-11.6-4.4-18.7-4.4s-13.3,1.5-18.7,4.4
		c-5.4,2.9-9.5,7-12.5,12.4c-2.9,5.3-4.4,11.5-4.4,18.5v27.1c0,7,1.5,13.2,4.4,18.5c2.9,5.3,7.1,9.5,12.5,12.4
		c5.4,2.9,11.6,4.4,18.7,4.4s13.3-1.5,18.7-4.4c5.4-2.9,9.5-7,12.5-12.4c2.9-5.3,4.4-11.5,4.4-18.5v-27.1
		C698.4,366.5,696.9,360.3,693.9,355 M679.3,401.1c0,3.3-0.7,6.3-2,8.8c-1.4,2.5-3.3,4.5-5.8,5.9c-2.5,1.4-5.4,2.1-8.7,2.1
		c-3.3,0-6.2-0.7-8.7-2.1c-2.5-1.4-4.4-3.3-5.8-5.9c-1.4-2.5-2-5.5-2-8.8v-28c0-3.3,0.7-6.3,2-8.8c1.4-2.5,3.3-4.5,5.8-5.9
		c2.5-1.4,5.4-2.1,8.7-2.1c3.3,0,6.2,0.7,8.7,2.1c2.5,1.4,4.4,3.3,5.8,5.9c1.4,2.5,2,5.5,2,8.8V401.1z"/>
	<polygon class="st2" points="690.3,333.2 668.4,336.9 666.3,331.8 686.5,323.9 	"/>
	<rect x="589.2" y="339.2" class="st1" width="19" height="95.7"/>
	<path class="st3" d="M551.9,411c-1.5,2.2-3.3,3.9-5.4,5.1c-2.1,1.2-4.6,1.7-7.2,1.7c-3.4,0-6.4-0.7-8.8-2.1c-2.4-1.4-4.3-3.4-5.5-6
		c-1.3-2.6-1.9-5.8-1.9-9.5v-26.2c0-3.7,0.6-6.9,1.9-9.6c1.3-2.7,3.1-4.7,5.5-6.1c2.4-1.4,5.3-2.1,8.8-2.1c2.6,0,5,0.6,7.1,1.8
		c2.1,1.2,3.9,2.9,5.4,5.1c1.5,2.2,2.6,4.9,3.3,8.1h19c-1.2-7-3.4-12.9-6.5-17.9c-3.1-4.9-7.1-8.7-12-11.3
		c-4.8-2.6-10.3-3.9-16.4-3.9c-7.4,0-13.8,1.4-19,4.2c-5.3,2.8-9.3,6.9-12.1,12.2c-2.8,5.3-4.2,11.8-4.2,19.3v26.2
		c0,7.5,1.4,14,4.2,19.3c2.8,5.3,6.8,9.4,12.1,12.2c5.3,2.8,11.6,4.2,19,4.2c6.1,0,11.6-1.3,16.4-3.9c4.8-2.6,8.8-6.3,11.9-11.3
		c3.1-4.9,5.3-10.9,6.6-17.9h-19C554.5,406,553.4,408.8,551.9,411"/>
	<path class="st3" d="M478.6,434.9h19.8l-37.2-95.7h-11.7l-37.2,95.7H432l5.5-15.3h35.7L478.6,434.9z M443.7,402.2l11.6-32.6
		l11.6,32.6H443.7z"/>
	<path class="st4" d="M386.1,434.9h22.2L385,395.4c2.3-0.6,4.4-1.5,6.4-2.6c4.1-2.4,7.2-5.7,9.5-10c2.2-4.3,3.3-9.3,3.3-15
		c0-5.7-1.1-10.7-3.3-15c-2.2-4.3-5.4-7.7-9.4-10c-4.1-2.4-8.8-3.6-14.1-3.6H353h-11h-7.3v95.7H353v-38.5h11.1L386.1,434.9z
		 M353,356.5h22.8c1.9,0,3.6,0.5,5,1.4c1.4,0.9,2.5,2.2,3.3,3.9c0.8,1.7,1.2,3.7,1.2,5.9c0,2.2-0.5,4.2-1.2,5.9
		c-0.8,1.7-1.9,3-3.3,3.9c-1.4,0.9-3.1,1.4-5,1.4H353V356.5z"/>
	<path class="st4" d="M281.8,381.4v17.4h14.7v1.6c0,3.5-0.7,6.5-2,9c-1.3,2.5-3.2,4.5-5.7,5.8c-2.5,1.3-5.4,2-8.7,2
		c-3.3,0-6.3-0.6-8.8-1.8c-2.5-1.2-4.5-3-5.9-5.3c-1.4-2.3-2.1-4.9-2.1-7.9v-28.2c0-3.4,0.7-6.4,2-8.9c1.4-2.6,3.3-4.6,5.8-6
		s5.3-2.1,8.6-2.1c2.2,0,4.4,0.4,6.5,1.2c2.1,0.8,3.9,1.9,5.4,3.4c1.5,1.5,2.6,3.2,3.3,5.2h19.8c-1.2-5.7-3.4-10.6-6.7-14.9
		c-3.3-4.3-7.4-7.6-12.3-10c-4.9-2.3-10.3-3.5-16.1-3.5c-7.1,0-13.3,1.5-18.6,4.4c-5.4,3-9.5,7.1-12.4,12.5
		c-2.9,5.4-4.4,11.6-4.4,18.7v28.2c0,6.7,1.5,12.6,4.5,17.7c3,5.1,7.2,9,12.6,11.8c5.4,2.8,11.7,4.2,18.8,4.2
		c7.1,0,13.3-1.5,18.6-4.4c5.4-3,9.5-7.1,12.4-12.6c2.9-5.4,4.4-11.7,4.4-18.8v-18.7H281.8z"/>
	<rect x="206.3" y="339.2" class="st0" width="19" height="95.7"/>
	<polygon class="st0" points="161,339.2 142.5,403.7 123.9,339.2 99.8,339.2 99.8,434.9 116.4,434.9 116.4,368.2 134.4,424.2 
		150.6,424.2 168.5,366.9 168.5,434.9 185.2,434.9 185.2,339.2 	"/>
	<polygon class="st3" points="789.4,288.8 789.4,281.8 770.4,281.8 765.6,281.8 762.9,281.8 762.9,320.6 765.6,320.6 770.4,320.6 
		789.4,320.6 789.4,313.6 770.4,313.6 770.4,304.9 786.4,304.9 786.4,297.8 770.4,297.8 770.4,288.8 	"/>
	<path class="st3" d="M753.7,288.1c-1.2-2.1-3-3.7-5.3-4.8c-2.3-1.1-5.1-1.6-8.5-1.6h-5.6h-3.7h-3.8v38.9h3.8h3.7h5.6
		c3.4,0,6.3-0.6,8.6-1.7c2.3-1.2,4.1-2.8,5.3-4.9c1.2-2.1,1.8-4.5,1.8-7.3v-11C755.6,292.7,755,290.2,753.7,288.1 M747.8,306.9
		c0,2.1-0.7,3.8-2,4.9c-1.3,1.2-3.2,1.7-5.7,1.7h-5.8v-24.8h5.8c2.5,0,4.3,0.6,5.7,1.7c1.3,1.2,2,2.8,2,4.9V306.9z"/>
	<path class="st3" d="M702.2,288.2c-1.2-2.2-2.9-3.8-5.1-5c-2.2-1.2-4.7-1.8-7.6-1.8c-2.9,0-5.4,0.6-7.6,1.8c-2.2,1.2-3.9,2.9-5.1,5
		c-1.2,2.2-1.8,4.7-1.8,7.5v11c0,2.9,0.6,5.4,1.8,7.5c1.2,2.2,2.9,3.8,5.1,5c2.2,1.2,4.7,1.8,7.6,1.8c2.9,0,5.4-0.6,7.6-1.8
		c2.2-1.2,3.9-2.9,5.1-5c1.2-2.2,1.8-4.7,1.8-7.5v-11C704,292.8,703.4,290.3,702.2,288.2 M696.3,306.9c0,1.4-0.3,2.5-0.8,3.6
		c-0.6,1-1.3,1.8-2.4,2.4c-1,0.6-2.2,0.8-3.5,0.8c-1.3,0-2.5-0.3-3.5-0.8c-1-0.6-1.8-1.4-2.4-2.4c-0.6-1-0.8-2.2-0.8-3.6v-11.4
		c0-1.4,0.3-2.5,0.8-3.6c0.6-1,1.3-1.8,2.4-2.4c1-0.6,2.2-0.8,3.5-0.8c1.3,0,2.5,0.3,3.5,0.8c1,0.6,1.8,1.4,2.4,2.4
		c0.6,1,0.8,2.2,0.8,3.6V306.9z"/>
	<path class="st3" d="M661.1,310.9c-0.6,0.9-1.3,1.6-2.2,2.1c-0.9,0.5-1.8,0.7-2.9,0.7c-1.4,0-2.6-0.3-3.6-0.8
		c-1-0.6-1.7-1.4-2.2-2.4c-0.5-1.1-0.8-2.4-0.8-3.9v-10.7c0-1.5,0.3-2.8,0.8-3.9c0.5-1.1,1.3-1.9,2.2-2.5c1-0.6,2.2-0.8,3.6-0.8
		c1.1,0,2,0.2,2.9,0.7c0.9,0.5,1.6,1.2,2.2,2.1c0.6,0.9,1.1,2,1.3,3.3h7.7c-0.5-2.8-1.4-5.3-2.7-7.3c-1.3-2-2.9-3.5-4.9-4.6
		c-2-1.1-4.2-1.6-6.7-1.6c-3,0-5.6,0.6-7.7,1.7c-2.1,1.1-3.8,2.8-4.9,5c-1.1,2.2-1.7,4.8-1.7,7.9v10.7c0,3.1,0.6,5.7,1.7,7.9
		c1.1,2.2,2.8,3.8,4.9,4.9c2.1,1.1,4.7,1.7,7.7,1.7c2.5,0,4.7-0.5,6.7-1.6c2-1.1,3.6-2.6,4.8-4.6c1.3-2,2.2-4.4,2.7-7.3h-7.7
		C662.2,308.9,661.7,310,661.1,310.9"/>
	<polygon class="st3" points="635.7,288.8 635.7,281.8 616.6,281.8 611.9,281.8 609.2,281.8 609.2,320.6 611.9,320.6 616.6,320.6 
		635.7,320.6 635.7,313.6 616.6,313.6 616.6,304.9 632.7,304.9 632.7,297.8 616.6,297.8 616.6,288.8 	"/>
	<polygon class="st3" points="604.8,281.8 575.8,281.8 575.8,288.8 586.6,288.8 586.6,320.6 594,320.6 594,288.8 604.8,288.8 	"/>
	<polygon class="st3" points="558.4,313.6 558.4,281.8 550.9,281.8 550.9,320.6 554.2,320.6 558.4,320.6 577.4,320.6 577.4,313.6 	
		"/>
	<path class="st3" d="M538,320.6h8l-15.1-38.9h-4.7L511,320.6h8l2.2-6.2h14.5L538,320.6z M523.8,307.3l4.7-13.3l4.7,13.3H523.8z"/>
	<polygon class="st3" points="496.8,281.8 489.3,308 481.7,281.8 471.9,281.8 471.9,320.6 478.7,320.6 478.7,293.5 486,316.3 
		492.6,316.3 499.9,293 499.9,320.6 506.6,320.6 506.6,281.8 	"/>
	<polygon class="st3" points="465.1,288.8 465.1,281.8 446,281.8 441.3,281.8 438.6,281.8 438.6,320.6 441.3,320.6 446,320.6 
		465.1,320.6 465.1,313.6 446,313.6 446,304.9 462.1,304.9 462.1,297.8 446,297.8 446,288.8 	"/>
	<polygon class="st3" points="434.2,281.8 405.2,281.8 405.2,288.8 416,288.8 416,320.6 423.4,320.6 423.4,288.8 434.2,288.8 	"/>
	<path class="st3" d="M398.8,320.6h8l-15.1-38.9H387l-15.1,38.9h8l2.2-6.2h14.5L398.8,320.6z M384.6,307.3l4.7-13.3l4.7,13.3H384.6z
		"/>
	<path class="st3" d="M361.6,281.8v25c0,2.2-0.6,4-1.8,5.2c-1.2,1.2-3,1.8-5.2,1.8c-2.2,0-3.9-0.6-5.1-1.8c-1.2-1.2-1.8-3-1.8-5.2
		v-25h-7.5v24.8c0,3,0.6,5.7,1.7,7.8c1.1,2.2,2.8,3.8,4.9,4.9c2.2,1.1,4.8,1.7,7.8,1.7c3,0,5.7-0.6,7.8-1.7c2.2-1.1,3.8-2.8,5-4.9
		c1.1-2.2,1.7-4.8,1.7-7.8v-24.8H361.6z"/>
	<path class="st3" d="M320.2,298.9v7.1h6v0.6c0,1.4-0.3,2.6-0.8,3.7c-0.5,1-1.3,1.8-2.3,2.4c-1,0.5-2.2,0.8-3.5,0.8
		c-1.4,0-2.6-0.2-3.6-0.7c-1-0.5-1.8-1.2-2.4-2.1c-0.6-0.9-0.8-2-0.8-3.2v-11.5c0-1.4,0.3-2.6,0.8-3.6c0.6-1.1,1.3-1.9,2.3-2.4
		c1-0.6,2.2-0.9,3.5-0.9c0.9,0,1.8,0.2,2.6,0.5c0.8,0.3,1.6,0.8,2.2,1.4c0.6,0.6,1.1,1.3,1.3,2.1h8.1c-0.5-2.3-1.4-4.3-2.7-6.1
		c-1.3-1.7-3-3.1-5-4.1c-2-1-4.2-1.4-6.5-1.4c-2.9,0-5.4,0.6-7.6,1.8c-2.2,1.2-3.9,2.9-5.1,5.1c-1.2,2.2-1.8,4.7-1.8,7.6v11.5
		c0,2.7,0.6,5.1,1.8,7.2c1.2,2.1,2.9,3.7,5.1,4.8c2.2,1.1,4.8,1.7,7.6,1.7c2.9,0,5.4-0.6,7.6-1.8c2.2-1.2,3.9-2.9,5-5.1
		c1.2-2.2,1.8-4.7,1.8-7.6v-7.6H320.2z"/>
	<path class="st3" d="M556.5,239.1c-1.2-2.2-2.9-3.8-5.1-5c-2.2-1.2-4.7-1.8-7.6-1.8s-5.4,0.6-7.6,1.8c-2.2,1.2-3.9,2.9-5.1,5
		c-1.2,2.2-1.8,4.7-1.8,7.5v11c0,2.9,0.6,5.4,1.8,7.5c1.2,2.2,2.9,3.8,5.1,5c2.2,1.2,4.7,1.8,7.6,1.8s5.4-0.6,7.6-1.8
		c2.2-1.2,3.9-2.9,5.1-5c1.2-2.2,1.8-4.7,1.8-7.5v-11C558.3,243.8,557.7,241.3,556.5,239.1 M550.6,257.8c0,1.4-0.3,2.5-0.8,3.6
		c-0.6,1-1.3,1.8-2.4,2.4c-1,0.6-2.2,0.8-3.5,0.8s-2.5-0.3-3.5-0.8c-1-0.6-1.8-1.4-2.4-2.4c-0.6-1-0.8-2.2-0.8-3.6v-11.4
		c0-1.4,0.3-2.5,0.8-3.6c0.6-1,1.3-1.8,2.4-2.4c1-0.6,2.2-0.8,3.5-0.8s2.5,0.3,3.5,0.8c1,0.6,1.8,1.4,2.4,2.4c0.6,1,0.8,2.2,0.8,3.6
		V257.8z"/>
	<polygon class="st3" points="526.9,232.7 497.9,232.7 497.9,239.8 508.7,239.8 508.7,271.6 516.1,271.6 516.1,239.8 526.9,239.8 	
		"/>
	<path class="st3" d="M487.7,232.7v25c0,2.2-0.6,4-1.8,5.2c-1.2,1.2-3,1.8-5.2,1.8c-2.2,0-3.9-0.6-5.1-1.8c-1.2-1.2-1.8-3-1.8-5.2
		v-25h-7.5v24.8c0,3,0.6,5.7,1.7,7.8c1.1,2.2,2.8,3.8,4.9,4.9c2.2,1.1,4.8,1.7,7.8,1.7c3,0,5.7-0.6,7.8-1.7c2.2-1.1,3.8-2.8,5-4.9
		c1.1-2.2,1.7-4.8,1.7-7.8v-24.8H487.7z"/>
	<polygon class="st3" points="463.5,232.7 434.5,232.7 434.5,239.8 445.3,239.8 445.3,271.6 452.8,271.6 452.8,239.8 463.5,239.8 	
		"/>
	<rect x="421.9" y="232.7" class="st3" width="7.7" height="38.9"/>
	<polygon class="st3" points="418.1,232.7 389.1,232.7 389.1,239.8 399.8,239.8 399.8,271.6 407.3,271.6 407.3,239.8 418.1,239.8 	
		"/>
	<path class="st3" d="M386,253.9c-1.1-1.5-2.5-2.6-4.2-3.3c-1.7-0.7-3.8-1.3-6.3-1.8c-0.1,0-0.2,0-0.3-0.1c-0.1,0-0.2,0-0.3-0.1
		c-0.1,0-0.1,0-0.2,0c-0.1,0-0.1,0-0.2,0c-1.7-0.3-3.1-0.7-4.1-1c-1-0.3-1.8-0.8-2.4-1.4c-0.7-0.7-1-1.5-1-2.7v0
		c0-1.3,0.6-2.4,1.9-3.1c1.3-0.7,3-1.1,5.3-1.1c1.5,0,3.1,0.3,4.8,0.9c1.7,0.6,3.3,1.4,4.8,2.4l3.2-6.2c-1.3-0.9-2.6-1.6-4-2.2
		c-1.4-0.6-2.9-1.1-4.3-1.4c-1.5-0.3-2.9-0.5-4.3-0.5c-3.1,0-5.7,0.5-7.9,1.4c-2.2,0.9-3.8,2.3-5,4.1c-1.1,1.8-1.7,3.9-1.7,6.4v0
		c0,2.8,0.6,5,1.8,6.6c1.2,1.5,2.7,2.6,4.4,3.2c1.7,0.6,3.9,1.1,6.6,1.5l0.6,0.1c0.1,0,0.1,0,0.1,0c0,0,0.1,0,0.2,0
		c1.5,0.2,2.7,0.5,3.7,0.8c1,0.3,1.7,0.7,2.3,1.3c0.6,0.6,0.9,1.4,0.9,2.5v0c0,1.5-0.7,2.6-2,3.4c-1.3,0.8-3.2,1.2-5.7,1.2
		c-2.1,0-4.2-0.3-6.2-1c-2-0.7-3.8-1.6-5.3-2.8l-3.5,6c1.3,1,2.7,1.9,4.3,2.6c1.6,0.7,3.3,1.3,5.1,1.6c1.8,0.4,3.7,0.6,5.5,0.6
		c3.2,0,5.9-0.5,8.2-1.4c2.3-0.9,4-2.3,5.2-4c1.2-1.8,1.8-3.9,1.8-6.4v-0.1C387.7,257.5,387.1,255.4,386,253.9"/>
	<polygon class="st3" points="344.3,232.7 344.3,261.2 330.3,232.7 321.1,232.7 321.1,271.5 328.3,271.5 328.3,243.5 342.3,271.5 
		351.5,271.5 351.5,232.7 	"/>
	<rect x="305.2" y="232.7" class="st3" width="7.7" height="38.9"/>
	<path class="st5" d="M230,136.4c0.5,1,1.8,2,2.7,1.9c2.2-0.3,4.1,0.5,5.8,1.4c0.2,0.1,0.3,0.2,0.5,0.3c0.3-0.1,0.6-0.1,0.9-0.2
		c1.2-0.2,2.5-0.4,3.8-0.9c1-0.4,2.6-1,3.4-1.3c2.1-3.9,4.1-11.6,6-19c2.7-10.4,5.2-20.3,8.7-23.2c0.4-0.4,0.9-0.8,1.3-1.2
		c1.7-3.1,3.6-7.1,2.8-7.8c-1.4-1.2-8.4,5.9-8.4,5.9s5.7-12.2,4-13.2c-1.6-1-7.9,9.9-7.9,9.9s5.3-17.9,3.5-18.5
		c-1.8-0.6-6.9,13.5-6.9,13.5s6.5-19.4,4.5-20.6c-2-1.1-9,20-9,20s4.1-28.4,0.9-29.3c-3.2-0.9-4.8,27.1-13.8,40.3
		C228.9,100.3,233.2,129.1,230,136.4"/>
	<path class="st6" d="M225.7,180.4c0,0-1.3-24.5-5.2-18c-1.5,2.6-3.6-6.9-3.6-6.9l-2.2-3.5c-3.9,5.7-7.3,18,10.8,38
		c3.7,4.2,6.7,6.2,8.9,6.8C229.4,186.1,227.8,177,225.7,180.4"/>
	<path class="st5" d="M320.3,453.4c-0.6,7.3-1,10.3-3.3,14c-4.9,8.1-13.1,10.8-23.3,10.2c-6.9-0.4-15.2-4.2-24-11.1
		c-8.1-6.3-22.6-25.9-27.7-43.2c-10.7-36.8,7-83.4,18.6-117.9c3.5-10.4,7.4-22.9,7.9-33.8c0.3-7.9,3.4-11.4,2.5-16.4
		c0.5,0.7,1,1.3,1.6,1.1c0,0,1.8-0.1,0.3-6.2c0,0,11.3,20.7,23.3,28c0,0,1.8,0.9,1.8-1.1c0,0-18.4-18.7-30.3-41.9
		c13.4,12.3,27.9,21.5,27.9,21.5c10.3,3.7,4.6-0.9,4.6-0.9c-14.8-10.1-29.3-26.1-40.1-39.9c-1.8-6.7-2.6-13.4-1.9-19.9
		c0-0.4-0.2-1.1-0.3-2c-0.1-0.6-0.2-1.2-0.3-1.8l0,0c-0.8-4.4-2.3-10.9-3.6-12.8c0,0,0,0,0,0c-0.7-6.4-4.4-13.9-4.4-13.9
		s1.1,0.4,2.8,1c0,0,2.4,0.8,3.2,1.1L255,165l4.8,2.6c-0.7-1.2-1.6-2.4-2.7-3.5l0,0c4.1,1.4,9.1,2.9,9.6,2.2
		c0.8-1.3-3.1-2.3-3.1-2.3s7.9-1.7,9.1-4c1.1-2.3-3.6-2.5-3.6-2.5s9.6-1.3,9.9-4.1c0.3-2.4-5-3-6.7-3.1c2.4,0.1,12.1,0.6,12.1-2.2
		c0-3.1-5.4-4.3-5.4-4.3s10.4-0.8,10.1-4c-0.3-3.2-6.4-2.6-6.4-2.6s9.3-1,9.5-3.6c0.2-2.6-5.2-3.9-5.2-3.9s9.6-2.4,8.9-5.6
		c-0.7-3.2-8.5-0.6-8.5-0.6s14.1-5.6,13-10.8c-0.4-1.7-8.8,2.3-8.8,2.3s9.6-8.6,8.5-10.6c-0.8-1.4-9.2,3.9-9.2,3.9s10-9.4,8.9-11
		c-1.1-1.6-10.6,3.8-10.6,3.8s9.7-11.3,8.2-12.8c-1.5-1.5-11.3,8.3-11.3,8.3s10.9-17.4,9.2-18.6c-1.7-1.2-11.3,12.4-11.3,12.4
		s12.7-18.7,10.9-20.5c-1.8-1.8-15.5,18.6-15.5,18.6s12.7-28.9,9.6-30.8c-3.1-1.9-13.1,27.4-26.6,38.8c-5.7,4.8-9.5,33.4-14.7,42.3
		c0,0-2.4,0.9-3.8,1.5c-2,0.8-3.8,0.9-5.4,1.3c-0.3-0.2-0.6-0.3-0.8-0.5c-1.6-0.8-3.2-1.4-5.1-1.2c-1.7,0.2-3.9-1.6-4.2-3.2
		c-0.2-0.7-0.4-1.3-1.2-1.5c-0.6-0.1-0.5-0.5-0.1-0.8c0.8-0.6,1.7-0.8,2.8-1.1c-0.8-0.2-1.4-0.1-1.9-0.1c-0.5,0-1.1,0.1-1.6,0.2
		c0,0,0-0.1,0-0.1c0.2-0.3,0.8-0.4,0.6-0.8c-0.3-0.5-0.9,0.1-1.3-0.1c-0.1-0.5,0.3-0.7,0.5-0.9c0.2-0.2,0.5-0.4,0.3-0.8
		c-0.2-0.3-0.5-0.1-0.8-0.1c-1.3,0.4-1.5,0.2-1.3-1.2c0-0.2,0.1-0.4-0.1-0.4c-0.2-0.1-0.3,0.1-0.4,0.2c-0.2,0.3-0.4,0.6-0.7,0.9
		c-0.4-0.4-0.2-0.9-0.3-1.3c-0.5-0.3-0.5-0.3-1.6,0.6c-0.1-0.2-0.1-0.3-0.2-0.5c-0.1-0.3,0-0.7-0.4-0.8c-0.5-0.1-0.5,0.4-0.7,0.7
		c-0.2,0.3-0.1,0.9-0.5,0.8c-0.4,0-0.7-0.6-0.9-1c0-0.1-0.1-0.2-0.1-0.2c0-0.3,0.1-0.7-0.3-0.7c-0.4,0-0.4,0.4-0.5,0.7
		c-0.1,0.4-0.2,0.8-0.3,1.1c-0.5,0-0.5-0.4-0.7-0.6c-0.3-0.3-0.6-0.8-1.1-0.6c-0.5,0.2-0.2,0.7-0.3,1.1c-0.4-0.3-0.8-0.6-1.3-1
		c-0.1,1.1-0.7,1.9-1.4,2.6c-1.1,1-2,2.3-2.8,3.6c-0.9,2.1-1.1,4.1,0,6.2c0.1,0.3-0.1,0.4-0.2,0.6c-1.1,2.2-0.9,4.1,0.9,6
		c-0.2-1.2,0.3-2,1-2.7c0.3-0.3,0.5-0.4,0.8,0c1.2,1.6,1.9,3.4,1.9,5.4c0,0.4,0,0.8,0,1.2l2.7,4.5c0,0,2,9.5,3.5,6.9
		c3.9-6.5,5.2,18,5.2,18c2.2-3.7,4,7.7,10.4,19.6c5.8,12.8,4.2,10.4,7.6,16.8c0,0,3.9,17.6,6.5,29.4l1.4,11.6
		c0.4-0.2,0.7-0.6,0.9-1.2c0.7,1.9,1.9,4.6,3.3,5.9c0.1,6.4,0.1,12.7-0.1,19c-0.5,11.5-4.4,22.2-8,33.1c-7.3,21.7-12.2,43.4-15.7,66
		c-3,19.5-2.7,36.1,5.8,54.2c8.5,18,22.5,35,40.8,42.6c9.1,3.7,20.7,5.4,29.8,0.7c6.2-3.2,11.8-8.9,12.3-19
		C321.1,451.5,320.9,445.8,320.3,453.4"/>
</g>
</svg>
