<?xml version="1.0" encoding="utf-8"?>
<!-- Generator: Adobe Illustrator 22.0.0, SVG Export Plug-In . SVG Version: 6.00 Build 0)  -->
<svg version="1.1" id="Capa_1" xmlns="http://www.w3.org/2000/svg" xmlns:xlink="http://www.w3.org/1999/xlink" x="0px" y="0px"
	 viewBox="0 0 1772 987" style="enable-background:new 0 0 1772 987;" xml:space="preserve">
<style type="text/css">
	.st0{fill:#FFFFFF;}
</style>
<title>LOGO NUEVO</title>
<g>
	<path class="st0" d="M378.7,957.3c-0.8,0-1.7-0.2-2.4-0.5l-0.8-0.4l-25.1-10L323.7,935l-16.5-5.9l-13.2-3l-9.5-1.5l-11.2-1
		l-12.2,1.1l-1.5,0.4c-0.4,0.1-0.8,0.2-1.3,0.2l-19.6,1.2c-0.2,0-0.3,0-0.5,0l-22.9-0.4c-0.2,0-0.3,0-0.5,0l-20.9-2.2
		c-0.2,0-0.3,0-0.5-0.1l-25.9-4.9c-0.4-0.1-0.8-0.2-1.2-0.4L126,901.3c-0.2-0.1-0.3-0.2-0.5-0.2l-14.6-8l-21.7-12.9
		c-0.1-0.1-0.2-0.1-0.4-0.2l-25-17.6c-0.2-0.1-0.3-0.2-0.4-0.4l-24-20.9L5.8,817.7c-1.8-1.3-2.7-3.5-2.2-5.6
		c0.5-2.1,2.3-3.7,4.6-4.1l1.4-0.2l1.1-1.3l3.4-9.2c0.1-0.2,0.2-0.5,0.3-0.7l3.3-6l0.3-1.2l-0.1-1.6l-2.8-7.6
		c-0.1-0.4-0.2-0.8-0.3-1.2l-0.1-1.2c0-0.3,0-0.7,0-1l0.2-2.1l0-0.2l-1.3-3.5c-0.1-0.2-0.1-0.3-0.2-0.5l-0.4-1.4
		c-0.1-0.4-0.2-0.7-0.2-1.1l-0.1-3.6c0-0.7,0.1-1.5,0.4-2.2l0.8-2c0.2-0.6,0.6-1.1,1-1.5l2.9-3.3l1.2-3.2l-0.4-9.5
		c0-0.3,0-0.5,0-0.8l0.6-5.6c0.1-1.2,0.7-2.4,1.6-3.3l2-2c0.7-0.7,1.5-1.1,2.4-1.4l2.1-0.6c0.3-0.1,0.6-0.1,0.9-0.2l1.7-0.3l0.4-0.4
		l1.8-3.9L12,699.1c-0.3-0.3-0.5-0.7-0.7-1.1l-1.3-2.8c-0.3-0.7-0.5-1.4-0.5-2.1L9.5,690c0-0.7,0.1-1.3,0.3-2l1.1-3
		c0.1-0.3,0.2-0.6,0.4-0.8l77.7-129.2c0.1-0.2,0.3-0.4,0.5-0.7l2.1-2.5c0.5-0.6,1.1-1.1,1.9-1.5l2.8-1.3c0.8-0.4,1.6-0.6,2.5-0.6
		l212-0.3l-0.3-1.4c-0.4-2,0.3-4,1.9-5.3l0.1-0.1c-0.1-0.4-0.1-0.8-0.1-1.2v-1.1c0-0.5,0.1-1,0.2-1.4c-1.3-0.8-2.2-2.1-2.5-3.5
		l-0.6-3.2c-0.2-1.2-0.1-2.4,0.5-3.4l1.2-2.3l0-0.1c-0.2-0.4-0.4-0.9-0.4-1.4l-0.3-1.7c-0.3-1.6,0.2-3.2,1.4-4.4l1.8-1.9
		c0-0.1,0-0.2,0.1-0.3c-0.6-0.9-0.8-2-0.8-3c0.1-1.8,1.2-3.5,2.9-4.4l1.2-0.6c0.2-0.1,0.3-0.2,0.5-0.2c-0.4-0.9-0.5-2-0.4-3l0.4-2.4
		c0.2-1.1,0.8-2.1,1.6-2.9c-0.2-0.1-0.4-0.2-0.6-0.3l-1.5-0.8l-4.6-0.6c-2-0.2-3.6-1.5-4.4-3.2l-0.4-1c-0.3-0.6-0.4-1.3-0.5-1.9
		l-1.3,0.6c-2.5,1.2-5.6,0.4-7.1-1.9l-1.1-1.5c-0.1-0.1-0.1-0.2-0.2-0.3l-0.5,0.2c-1.7,0.8-3.6,0.7-5.2-0.1l-0.3-0.1l-1.1-0.2
		l-1.4,0l-1.3,0.3c-2.2,0.6-4.5-0.1-5.9-1.8s-1.7-4-0.6-5.9l0.3-0.5l-0.2-0.1c-1.4-0.6-2.5-1.7-3-3.1c-0.5-1.4-0.4-2.9,0.3-4.2
		l0.5-0.9l-0.2-0.9c0-0.1-0.1-0.3-0.1-0.4c-0.8-0.2-1.5-0.6-2.1-1.1c-1.3-1-2-2.5-2-4.1v-1.1c0-0.9,0.2-1.8,0.7-2.6l1.1-1.9
		l-1.2-3.3l-10.7-14.9l-1.4-1.1l-5.6-2.7c-0.4-0.2-0.7-0.4-1.1-0.7l-2.5-2c-0.7-0.5-1.2-1.2-1.5-1.9l-0.3,0c-0.6,0-1.1-0.1-1.6-0.2
		l-11.8-3.5c-0.4-0.1-0.8-0.3-1.2-0.5l-3.2-1.8c-0.4-0.2-0.8-0.5-1.2-0.9l-4.3-4.2l-2.3-1.1c-1.6,0.6-3.3,0.5-4.8-0.3l-0.9-0.5
		c-0.5-0.3-1-0.6-1.4-1.1l-1.8-1.9l-5.6-1.9c-0.7-0.2-1.3-0.6-1.8-1l-2-1.7c-0.9-0.8-1.5-1.8-1.8-2.9l-0.6-2.9l-0.3-0.6l-5.7-6.6
		c-0.3-0.4-0.6-0.8-0.8-1.3l-0.7-1.5c-0.1-0.2-0.2-0.5-0.3-0.8l-0.1-0.4l-1.6,0.2c-1,0.1-1.9,0-2.8-0.4l-1.7-0.7
		c-0.8-0.3-1.4-0.8-2-1.3l-6.1-6.4c-0.2-0.2-0.4-0.5-0.6-0.7l-1.6-2.4c-0.2-0.3-0.3-0.6-0.5-0.9l-0.7-1.7c-0.1-0.2-0.2-0.4-0.2-0.6
		l-0.5-1.7l-2.2-0.6c-1.4-0.4-2.7-1.3-3.4-2.5l-0.7-1.1c-0.4-0.6-0.6-1.3-0.7-2.1l-0.3-2.2l-0.7-2.2l-0.6-1l-2-0.1l-4,0.6
		c-0.6,0.1-1.2,0.1-1.9,0l-3.5-0.6c-2-0.3-3.7-1.7-4.4-3.6l-0.7-2l-4.4-0.9c-0.4-0.1-0.8-0.2-1.2-0.4l-4-1.8
		c-2.5-1.1-3.8-3.7-3.1-6.2l0.7-2.7c0.5-2,2.3-3.6,4.4-3.9l1.3-0.2c0.3-0.1,0.7-0.1,1-0.1l69.7,0.5l0.2-89.4c0-1.3,0.5-2.6,1.4-3.6
		l1.4-1.5c0.7-0.8,1.6-1.3,2.7-1.6l3.5-0.9c0.5-0.1,1-0.2,1.5-0.2l303.6,0.3l0-3.5c0-0.4,0-0.7,0.1-1l1.3-6.7c0.2-0.8,0.5-1.5,1-2.2
		l3.8-4.9c0.7-0.9,1.6-1.6,2.7-1.9l14.6-4.9c1.2-0.4,2.4-0.4,3.6,0l3.8,1.2c0.7,0.2,1.4,0.6,1.9,1l2.9,2.4c0.2,0.1,0.3,0.3,0.4,0.4
		l2.3,2.3l1.2,0.9l1-0.2c0.8-0.1,1.6-0.1,2.3,0l1.7,0.4c1.7,0.4,3.1,1.4,3.8,2.9l1.8,3.5l0.9,0.6l2.1,1.1c0.1-0.4,0.3-0.8,0.6-1.2
		l0.7-1.1c0.4-0.6,0.9-1.2,1.5-1.6l8.5-5.9l0.5-0.6l2.2-5.6c0.1-0.2,0.2-0.4,0.3-0.7l0.8-1.5c0.4-0.6,0.9-1.2,1.5-1.7l2.5-2v0
		c0.3-0.2,0.6-0.4,0.9-0.6l2.1-1.1l1-0.7l0.7-1l0.2-0.7l0.5-3.4c0-0.2,0.1-0.5,0.1-0.7l0.5-1.7c0.1-0.5,0.4-1,0.7-1.4l3.7-5.8
		c-0.5-0.8-0.8-1.7-0.9-2.6c-0.1-1.8,0.8-3.6,2.4-4.7l5-3.4c0.3-0.2,0.6-0.4,0.9-0.5l4.6-2l0.8-0.6l0.7-1l0.3-1.3l0.3-2.3
		c0-0.2,0.1-0.4,0.1-0.6l0.7-2.9c0.1-0.6,0.4-1.1,0.7-1.6l1.7-2.7c0.2-0.3,0.4-0.6,0.7-0.8l5.2-5.4l1.5-2.2l0.3-0.8l0.6-3.9
		c0.1-0.4,0.2-0.7,0.3-1.1l1.4-3.6l0.9-4.6c0.1-0.5,0.2-1,0.5-1.4l0.9-1.8c0.3-0.6,0.7-1.1,1.1-1.5l1.3-1.2c0.2-0.2,0.4-0.3,0.6-0.5
		l5.4-3.9c1.1-0.8,2.6-1.2,4-1l1.8,0.2c0.7,0.1,1.4,0.3,2.1,0.6l1.1,0.6l2.6-0.9l1.6-0.7c0.3-0.2,0.7-0.3,1-0.4l1.2-0.3
		c1.1-0.3,2.2-0.2,3.2,0.1l0.9,0.3c0.7,0.2,1.4,0.6,2,1.1l0.2,0.2l0.9-0.2c0.5-0.1,0.9-0.2,1.4-0.2l10.9-0.1c0.3,0,0.6,0,1,0.1
		l1.1,0.2c0.1,0,0.2,0,0.3,0c1.8,0.4,3.2,1.5,3.9,3l1.6,1.4c2.3,1.9,2.6,5.2,0.7,7.4l-3.5,4.1c-0.3,0.4-0.7,0.8-1.2,1.1l-2.4,1.6
		c0.4,0.2,0.8,0.5,1.2,0.8c0.5,0.5,1,1.1,1.3,1.7c0.4-0.2,0.8-0.3,1.2-0.4l2.9-0.5c0.6-0.1,1.1-0.1,1.7,0l3.9,0.5
		c0.6,0.1,1.1,0.2,1.7,0.5l5.5,2.3l1.3-0.2l4.3-2.7c0.5-0.3,1-0.5,1.5-0.7l6.1-1.7c0.3-0.1,0.6-0.1,0.9-0.2l2.1-0.3
		c1.4-0.2,2.9,0.2,4,1l0.9,0.6c1.7,1.2,2.5,3.1,2.3,5.1l-0.3,2.4c-0.1,0.5-0.2,1-0.4,1.4c0.5,0.7,0.7,1.6,0.8,2.4l1.4,20
		c0,0.3,0,0.6,0,0.8l-1.4,15.5c0,0.2,0,0.4-0.1,0.6l-0.6,2.6c-0.1,0.6-0.3,1.1-0.7,1.6l-2,3.3l-0.4,1.8c-0.1,0.3-0.2,0.6-0.3,1
		l-6.6,15.5c-0.4,1-1.2,1.9-2.1,2.5l-1.8,1.1L713,249l0.6,2.4c0.2,0.7,0.2,1.3,0.1,2l-2.1,14c0,0.3-0.1,0.5-0.2,0.7l-4.3,14
		c-0.1,0.3-0.2,0.5-0.3,0.8l-1.4,2.8c-0.2,0.4-0.5,0.8-0.8,1.2l-4.2,4.6l-1.1,1.9l-0.4,1.8l0.3,1.3l0.2,0.2l5.4,2.5
		c1.1,0.5,2,1.4,2.6,2.5l0.7,1.3l5.6,0.9c1,0.2,2,0.6,2.8,1.3l1.7,1.4c2.1,1.7,2.5,4.7,1.1,6.9l-2.1,3.3c-1,1.6-2.8,2.5-4.8,2.5
		l-4.5,0c-0.3,0-0.5,0-0.8-0.1l-0.9-0.1l-7.1,21.7l-1.6,16.4l-0.2,3.4l-11.2-0.5l0.2-3.5c0-0.1,0-0.2,0-0.2l1.7-17.1
		c0-0.4,0.1-0.7,0.2-1.1l7.2-22l0.4-2.2c0.2-1.3,1-2.6,2.1-3.4l1.2-0.9c-0.1-0.2-0.2-0.4-0.3-0.6l-0.5-0.9l-4.6-2.1
		c-0.6-0.3-1.1-0.6-1.5-1l-2.1-2.1c-0.8-0.8-1.3-1.8-1.5-2.8l-0.8-4c-0.1-0.7-0.1-1.4,0-2.1l0.8-3.6c0.1-0.5,0.3-1.1,0.6-1.6
		l1.9-3.1c0.2-0.3,0.4-0.6,0.6-0.9l4.1-4.5l0.9-1.8l4.1-13.2l1.9-12.6l-0.8-3.4c-0.3-1.3-0.1-2.6,0.5-3.7l7.3-13.1
		c0.4-0.8,1.1-1.6,1.9-2.1l1.6-1l5.8-13.5l0.5-2.2c0.1-0.6,0.3-1.1,0.7-1.6l2-3.3l0.3-1.5l1.3-14.7l-0.8-11.8l-1.2,0.5
		c-1.2,0.5-2.6,0.5-3.9,0.1l-1.3-0.4c-2.3-0.7-3.9-2.9-3.8-5.2l0-0.1l-2.1,0.3c-0.8,0.1-1.6,0.1-2.4-0.2l-2.3-0.7
		c-0.3-0.1-0.5-0.2-0.8-0.3l-4.3-1.9l-2.2-0.3l-1.4,0.2l-1.7,0.7l-4.9,3.2l-2.5,2.6c-0.3,0.3-0.6,0.6-1,0.8l-1.6,1
		c-0.8,0.5-1.8,0.9-2.8,0.9l-1.4,0.1c-2,0.1-4-0.8-5.1-2.5l-0.5-0.8c-1.1-1.7-1.2-3.9-0.1-5.6c-1.2-0.3-2.2-1-3-2l-2-2.6
		c-1.2-1.6-1.4-3.8-0.5-5.6l1.3-2.4c0.4-0.8,1.1-1.5,1.8-2l10-6.6l-4.1,0l-0.5,0.2c-0.5,0.3-1.1,0.5-1.7,0.6l-1,0.2
		c-1.3,0.2-2.6,0-3.7-0.6l-1.3-0.7c-0.2-0.1-0.4-0.3-0.6-0.4c-0.2,0.1-0.3,0.1-0.5,0.2l-3.5,1.2c-0.4,0.1-0.8,0.2-1.1,0.3l-1.6,0.2
		c-0.7,0.1-1.4,0-2.1-0.1l-1.8-0.5c-0.3-0.1-0.6-0.2-0.9-0.3l-3.3,2.4l-0.2,0.3l-0.8,4.4c-0.1,0.3-0.2,0.6-0.3,1l-1.4,3.5l-0.6,3.7
		c0,0.2-0.1,0.5-0.2,0.7l-0.6,1.9c-0.2,0.5-0.4,1-0.7,1.4l-2.2,3.2c-0.2,0.2-0.3,0.4-0.5,0.7l-5.1,5.4l-1,1.5l-0.4,1.7l-0.3,2.4
		c0,0.3-0.1,0.5-0.1,0.8l-0.7,2.5c-0.2,0.6-0.4,1.2-0.8,1.7l-1.8,2.5c-0.4,0.5-0.8,1-1.4,1.4l-2.1,1.5c-0.3,0.2-0.6,0.4-1,0.5
		l-4.7,2l-1,0.7c0.1,0.8,0.1,1.6-0.2,2.4l-0.6,1.9c-0.1,0.5-0.3,0.9-0.6,1.3l-3.9,6.1l-0.2,0.6l-0.5,3.5c0,0.3-0.1,0.5-0.2,0.8
		l-0.6,1.8c-0.2,0.5-0.4,1-0.7,1.5l-1.7,2.5c-0.3,0.4-0.6,0.7-1,1.1c-0.1,0.1-0.3,0.2-0.5,0.3l-2.1,1.4c-0.2,0.1-0.4,0.2-0.6,0.3
		l-2,1.1l-1.5,1.3l-2.4,6.3c-0.3,0.7-0.6,1.3-1.1,1.8l-1.6,1.7c-0.3,0.3-0.6,0.6-0.9,0.8l-7.8,5.4l-0.5,2.5c-0.2,0.8-0.5,1.5-1,2.1
		l-1.1,1.4c-0.7,0.9-1.8,1.6-3,2l-1.6,0.4c-1.4,0.4-3,0.2-4.2-0.5l-7.1-3.8c-0.2-0.1-0.4-0.2-0.6-0.4l-2.3-1.6
		c-0.7-0.5-1.3-1.2-1.7-2l-0.9-1.7c-0.3,0-0.5,0-0.8,0l-2.1-0.2c-1-0.1-2-0.4-2.8-1l-3-2.1c-0.3-0.2-0.5-0.4-0.8-0.7l-2.4-2.5
		l-1.8-1.5l-0.9-0.3l-11.2,3.7l-2,2.6l-1,5l0.1,8.4c0,1.4-0.6,2.8-1.6,3.8c-1.1,1-2.5,1.6-4,1.6h0L230.4,259l-0.1,0l-0.2,91.9
		c0,1.4-0.6,2.8-1.7,3.8c-1.1,1-2.5,1.6-4,1.6l-60-0.4l0.3,0.8l3-0.5c0.4-0.1,0.8-0.1,1.2-0.1l4.7,0.2c1.2,0.1,2.4,0.5,3.4,1.3
		l1.9,1.5c0.5,0.4,1,1,1.3,1.6l1.5,2.7c0.2,0.3,0.3,0.6,0.4,0.9l1,3.1c0.1,0.3,0.2,0.6,0.2,0.9l0,0l0.4,0.1c0.5,0.1,1,0.3,1.4,0.6
		l1.6,0.9c0.8,0.5,1.5,1.1,2,1.9l0.7,1.2c0.2,0.4,0.4,0.8,0.6,1.3l0.8,2.7l0.4,1l1,1.6l4.6,4.8l2.3-0.2c0.6-0.1,1.1,0,1.7,0.1
		l1.8,0.3c1.3,0.2,2.5,0.9,3.3,1.9l0.9,1.1c0.5,0.6,0.9,1.3,1.1,2.1l1,3.3l5.5,6.4c0.3,0.3,0.5,0.6,0.7,1l1,1.8
		c0.2,0.4,0.4,0.9,0.5,1.4l0.4,1.7l5.1,1.8c1-0.8,2.4-1.3,3.7-1.3l3,0c0.3,0,0.6,0,0.9,0.1l2.3,0.4c2.1,0.4,3.8,1.8,4.4,3.8l0.4,1.3
		c0.3,1,0.3,2,0,2.9l3.8,3.7l2,1.1l9.8,2.9c1.8-1.3,4.2-1.5,6.2-0.4l2.3,1.3c1.7,1,2.8,2.7,2.8,4.7v1l5,2.4c0.3,0.2,0.7,0.4,1,0.6
		l2.5,1.9c0.4,0.3,0.8,0.7,1.1,1.1l11.6,16.1c0.3,0.4,0.5,0.8,0.6,1.2l2.4,6.2c0.1,0.3,0.2,0.6,0.3,0.9l0.9,0.5
		c2.1,1.2,3.1,3.5,2.6,5.7l-0.6,2.4c-0.1,0.2-0.1,0.5-0.2,0.7l-0.6,1.4l0.2,1.1c0.1,0,0.1,0.1,0.2,0.1l2,1.2
		c1.6,0.9,2.6,2.5,2.7,4.3l0,0.7l2.9-0.8c0.5-0.2,1.1-0.2,1.7-0.2l1.7,0c2.3,0,4.3,1.4,5.2,3.3c0.8-0.1,1.6-0.1,2.3,0.2l1.9,0.5
		c0.6,0.2,1.2,0.4,1.7,0.8l1.6,1.1c0.2,0.2,0.5,0.3,0.7,0.5l1,0.9c0.5,0.5,0.9,1,1.2,1.6l0.8,1.7l1.3,0.2c0.5,0.1,1.1,0.2,1.6,0.4
		l1.8,0.8c0.3,0.1,0.6,0.3,0.8,0.4l0,0l0.3-0.1c1.2-0.5,2.4-0.6,3.7-0.3l1,0.2c2.2,0.5,3.9,2.3,4.2,4.5l0.3,2.5c0,0.2,0,0.4,0,0.6
		l0,1.5l1.4,2.3c1.2,1.9,1,4.3-0.4,6c-0.6,0.8-1.4,1.4-2.3,1.7c0,0.1,0,0.1-0.1,0.2l-1,2.8c-0.3,0.8-0.8,1.5-1.4,2.1l-0.2,0.1
		c0.2,0.5,0.3,1.1,0.3,1.7l0,1.8c0,1.7-0.9,3.4-2.3,4.3c0,0.9-0.3,1.8-0.8,2.6c-0.1,0.2-0.3,0.4-0.5,0.6c0.1,0.3,0.1,0.7,0.1,1
		c0.1,2.1-1.2,4.1-3.2,5l-0.9,0.4l1.6,0.9c0.8,0.4,1.5,1.1,2,1.8l1.1,1.7c0.9,1.3,1.1,3,0.6,4.5c-0.3,0.8-0.7,1.6-1.4,2.2
		c0.1,0.3,0.1,0.7,0.1,1c0,0.8-0.2,1.5-0.6,2.2c0.8,1.3,0.9,2.9,0.4,4.4l-0.5,1.4c-0.1,0.2-0.1,0.3-0.2,0.5l-1.2,2.4
		c-0.1,0.3-0.3,0.6-0.5,0.9l-0.6,0.8c-0.6,0.8-1.4,1.5-2.4,1.8c-0.1,0.1-0.3,0.1-0.4,0.2l-3.1,1.1c-0.4,0.1-0.8,0.2-1.3,0.3
		l-3.4,0.4c-0.2,0-0.4,0-0.7,0l-211.2,0.3l-0.5,0.2l-1,1.3L21.3,689.2l-0.6,1.6l0,1.1l0.6,1.2l21.8,27.3c1.2,1.5,1.5,3.6,0.7,5.4
		l-3.4,7.5c-0.2,0.5-0.5,1-0.9,1.4l-1.8,2c-0.6,0.6-1.3,1.1-2,1.4l-2.3,0.9c-0.5,0.2-1,0.3-1.6,0.4l-1.7,0.2l-0.3,3l0.5,10.2
		c0,0.7-0.1,1.4-0.3,2.1l-1.9,5.1c-0.2,0.6-0.6,1.2-1,1.6l-3,3.5l0.1,1.9l0.2,0.6l1.5,3.9c0.2,0.5,0.3,1,0.3,1.5l0.1,1.3
		c0,0.3,0,0.6,0,0.8l-0.2,2l0,0.1l2.8,7.8c0.2,0.5,0.3,1,0.3,1.5l0.2,3.2c0,0.5,0,1-0.2,1.5l-0.7,2.6c-0.1,0.4-0.3,0.8-0.5,1.2
		l-3.5,6.2l-3.6,9.7c-0.2,0.6-0.5,1.1-1,1.6l-0.9,1l27,18.8c0.2,0.1,0.3,0.2,0.5,0.4l24.1,20.9l24.6,17.3l21.4,12.7l14.2,7.8
		l39.6,16.9l25,4.7l20.5,2.2l22.4,0.4l18.7-1.1l1.4-0.4c0.3-0.1,0.7-0.2,1.1-0.2l13.3-1.2c0.4,0,0.7,0,1.1,0l11.9,1.1
		c0.1,0,0.2,0,0.4,0l9.9,1.5c0.1,0,0.3,0,0.4,0.1l13.8,3.1c0.2,0.1,0.5,0.1,0.7,0.2l17,6.1c0.1,0,0.2,0.1,0.3,0.1l27.4,11.8
		l14.3,5.7l-0.1-0.4c-0.1-0.5-0.2-0.9-0.2-1.4l-0.1-2.7c0-0.3,0-0.6,0.1-0.9l0.4-2.8c0-0.3,0.1-0.6,0.2-0.9l0.9-2.7
		c0.1-0.3,0.2-0.6,0.4-0.9l1.4-2.4c0.2-0.4,0.6-0.9,0.9-1.2l2.1-2c0.4-0.4,0.9-0.7,1.4-1l4.2-2.2l1-0.8l0.9-1.3l1-2.1
		c0.1-0.2,0.2-0.4,0.3-0.6l1.5-2.4c0.3-0.5,0.7-0.9,1.1-1.3l2.5-2.2c0.2-0.1,0.3-0.3,0.5-0.4l16.1-10.8l3.3-3.2
		c0.3-0.3,0.6-0.5,0.9-0.7l1.8-1.2c0.3-0.2,0.7-0.4,1.1-0.5l7.6-2.8c0.5-0.2,1.1-0.3,1.6-0.3l2.5-0.2c0.6,0,1.2,0,1.8,0.2l3.1,0.8
		c0.6,0.2,1.2,0.4,1.7,0.7l0.2-0.6c0.1-0.3,0.3-0.6,0.4-0.9l7.3-12.5c0.2-0.4,0.5-0.7,0.7-1l3.4-3.6c0.2-0.2,0.5-0.4,0.7-0.6
		l4.3-3.2c0.3-0.2,0.7-0.5,1.1-0.6l4.5-2l4.7,9.8l-3.9,1.7l-3.4,2.5l-2.7,2.8l-6.5,11.1l0.7,1.5c0.4,0.8,0.5,1.6,0.4,2.5l-0.1,0.9
		c-0.1,1.8-1.2,3.5-2.9,4.4l-2.5,1.3c-1.5,0.8-3.2,0.9-4.8,0.2l-2.5-1c-0.5-0.2-0.9-0.4-1.3-0.7l-3.6-2.7l-1.1-0.3l-0.8,0.1
		l-6.2,2.3l-0.8,0.5l-3.2,3.1c-0.2,0.2-0.5,0.4-0.7,0.6l-16.2,10.9l-1.6,1.4l-0.8,1.4l-1,2.2c-0.1,0.3-0.3,0.5-0.4,0.7l-1.6,2.4
		c-0.3,0.5-0.7,0.9-1.2,1.3l-2.1,1.6c-0.3,0.2-0.6,0.4-0.9,0.6l-3.9,2l-0.9,0.9l-0.8,1.4l-0.6,1.8l-0.3,1.8l0,1.5l3.4,10.7
		c0.7,2,0,4.3-1.7,5.7C381.4,956.9,380.1,957.3,378.7,957.3"/>
	<polygon class="st0" points="1726,636.9 1726,789 1648.8,636.9 1598.8,636.9 1598.8,844.5 1637.9,844.5 1637.9,694.8 1714.8,844.5 
		1765,844.5 1765,636.9 	"/>
	<path class="st0" d="M1546.6,671.1c-6.6-11.6-15.8-20.5-27.8-26.9c-12-6.3-25.8-9.5-41.6-9.5c-15.7,0-29.6,3.2-41.6,9.5
		c-12,6.3-21.3,15.3-27.8,26.9c-6.6,11.6-9.8,25-9.8,40.2v58.9c0,15.2,3.3,28.6,9.8,40.2c6.6,11.6,15.8,20.5,27.8,26.9
		c12,6.3,25.8,9.5,41.6,9.5c15.7,0,29.6-3.2,41.6-9.5c12-6.3,21.3-15.3,27.8-26.9c6.6-11.6,9.8-25,9.8-40.2v-58.9
		C1556.4,696.1,1553.1,682.7,1546.6,671.1 M1514,771.2c0,7.2-1.5,13.6-4.6,19.1c-3,5.5-7.3,9.8-12.9,12.8c-5.6,3-12,4.5-19.4,4.5
		c-7.4,0-13.8-1.5-19.4-4.5c-5.6-3-9.9-7.3-12.9-12.8c-3-5.5-4.6-11.9-4.6-19.1v-60.9c0-7.2,1.5-13.6,4.6-19.1
		c3-5.5,7.3-9.8,12.9-12.8c5.6-3,12-4.5,19.4-4.5c7.4,0,13.8,1.5,19.4,4.5c5.6,3,9.9,7.3,12.9,12.8c3,5.5,4.6,11.9,4.6,19.1V771.2z"
		/>
	<polygon class="st0" points="1538.4,623.9 1489.6,631.8 1485,620.8 1530,603.7 	"/>
	<rect x="1313.2" y="636.9" class="st0" width="42.4" height="207.7"/>
	<path class="st0" d="M1230.2,792.8c-3.3,4.9-7.3,8.5-12.1,11.1c-4.8,2.5-10.1,3.8-16.1,3.8c-7.7,0-14.2-1.5-19.5-4.5
		c-5.4-3-9.5-7.4-12.3-13.1c-2.8-5.7-4.3-12.6-4.3-20.7v-57c0-8.1,1.4-15,4.3-20.8c2.8-5.8,6.9-10.1,12.3-13.1
		c5.4-3,11.9-4.5,19.5-4.5c5.9,0,11.2,1.3,15.9,3.9c4.7,2.6,8.7,6.3,12.1,11.1c3.3,4.9,5.8,10.7,7.4,17.6h42.4
		c-2.7-15.1-7.5-28.1-14.5-38.8c-7-10.7-15.9-18.9-26.6-24.5c-10.7-5.6-22.9-8.4-36.6-8.4c-16.5,0-30.6,3-42.4,9.1
		c-11.7,6.1-20.7,14.9-26.9,26.5c-6.2,11.6-9.2,25.6-9.2,41.9v57c0,16.4,3.1,30.4,9.2,41.9c6.2,11.6,15.1,20.4,26.9,26.4
		c11.7,6,25.9,9.1,42.4,9.1c13.6,0,25.8-2.8,36.5-8.4c10.7-5.6,19.5-13.8,26.6-24.5c7-10.7,11.9-23.6,14.7-38.8h-42.4
		C1235.8,782,1233.4,787.9,1230.2,792.8"/>
	<path class="st0" d="M1066.9,844.7h44l-83-207.7h-26l-83,207.7h44l12.2-33.3h79.5L1066.9,844.7z M989,773.7l25.9-70.9l25.9,70.9
		H989z"/>
	<path class="st0" d="M860.6,844.7h49.5L858.3,759c5-1.3,9.8-3.2,14.2-5.7c9.1-5.1,16.1-12.4,21.1-21.8c5-9.4,7.5-20.3,7.5-32.6
		c0-12.4-2.5-23.3-7.5-32.6c-5-9.4-12-16.6-21-21.8c-9.1-5.1-19.5-7.7-31.5-7.7h-54.2h-24.6H746v207.9h40.9v-83.6h24.8L860.6,844.7z
		 M786.9,674.5h50.9c4.3,0,8,1,11.2,3c3.2,2,5.6,4.9,7.4,8.6c1.7,3.7,2.6,8,2.6,12.9c-0.1,4.9-1,9.1-2.8,12.9
		c-1.7,3.7-4.2,6.6-7.4,8.6c-3.2,2-6.9,3-11,3h-50.9V674.5z"/>
	<path class="st0" d="M628.4,728.5v37.7h32.8v3.4c0,7.5-1.5,14.1-4.5,19.6c-3,5.5-7.2,9.7-12.8,12.6c-5.5,2.9-12,4.4-19.3,4.4
		c-7.5,0-14-1.3-19.7-4c-5.7-2.7-10-6.5-13.1-11.4c-3.1-5-4.6-10.7-4.6-17.1v-61.3c0-7.3,1.5-13.8,4.5-19.4c3-5.6,7.3-10,12.8-13
		c5.5-3,11.9-4.6,19.2-4.6c5,0,9.8,0.8,14.4,2.5c4.6,1.7,8.7,4.1,12.1,7.3c3.4,3.2,5.9,7,7.4,11.4h44.2
		c-2.6-12.3-7.5-23.1-14.8-32.4c-7.3-9.3-16.4-16.5-27.4-21.6c-10.9-5.1-22.9-7.6-35.8-7.6c-15.7,0-29.5,3.2-41.5,9.6
		c-11.9,6.4-21.2,15.5-27.7,27.2c-6.5,11.7-9.8,25.3-9.8,40.7v61.3c0,14.6,3.3,27.4,9.9,38.4c6.6,11.1,16,19.6,28,25.6
		c12.1,6.1,26,9.1,41.9,9.1c15.7,0,29.5-3.2,41.5-9.6c11.9-6.4,21.2-15.5,27.7-27.3c6.5-11.8,9.8-25.4,9.8-40.8v-40.6H628.4z"/>
	<rect x="460.1" y="636.9" class="st0" width="42.4" height="207.7"/>
	<polygon class="st0" points="359.3,636.9 318,776.9 276.6,636.9 222.8,636.9 222.8,844.7 259.9,844.7 259.9,699.9 299.9,821.5 
		336,821.5 376,697.1 376,844.7 413.2,844.7 413.2,636.9 	"/>
	<polygon class="st0" points="1759.3,527.5 1759.3,512.2 1716.9,512.2 1706.3,512.2 1700.2,512.2 1700.2,596.6 1706.3,596.6 
		1716.9,596.6 1759.3,596.6 1759.3,581.3 1716.9,581.3 1716.9,562.3 1752.7,562.3 1752.7,547 1716.9,547 1716.9,527.5 	"/>
	<path class="st0" d="M1679.8,526c-2.7-4.5-6.7-8-11.9-10.3c-5.2-2.4-11.5-3.5-18.8-3.5h-12.6h-8.2h-8.4v84.5h8.4h8.2h12.5
		c7.6,0,14-1.3,19.2-3.8c5.2-2.5,9.1-6,11.7-10.6c2.6-4.5,3.9-9.8,3.9-15.9v-23.9C1683.9,536,1682.5,530.6,1679.8,526 M1666.6,566.8
		c0,4.6-1.5,8.2-4.5,10.7c-3,2.5-7.2,3.8-12.7,3.8h-12.9v-53.8h12.9c5.5,0,9.7,1.3,12.7,3.8c3,2.5,4.5,6.1,4.5,10.7V566.8z"/>
	<path class="st0" d="M1565,526.1c-2.7-4.7-6.4-8.3-11.3-10.9c-4.9-2.6-10.5-3.9-16.9-3.9c-6.4,0-12,1.3-16.9,3.9
		c-4.9,2.6-8.6,6.2-11.3,10.9c-2.7,4.7-4,10.2-4,16.4v23.9c0,6.2,1.3,11.6,4,16.3c2.7,4.7,6.4,8.3,11.3,10.9
		c4.9,2.6,10.5,3.9,16.9,3.9c6.4,0,12-1.3,16.9-3.9c4.9-2.6,8.6-6.2,11.3-10.9c2.7-4.7,4-10.2,4-16.3v-23.9
		C1569,536.2,1567.7,530.8,1565,526.1 M1551.8,566.7c0,2.9-0.6,5.5-1.8,7.8c-1.2,2.2-3,4-5.2,5.2c-2.3,1.2-4.9,1.8-7.9,1.8
		c-3,0-5.6-0.6-7.9-1.8c-2.3-1.2-4-3-5.2-5.2c-1.2-2.2-1.8-4.8-1.8-7.8V542c0-2.9,0.6-5.5,1.8-7.8c1.2-2.2,3-4,5.2-5.2
		c2.3-1.2,4.9-1.8,7.9-1.8c3,0,5.6,0.6,7.9,1.8c2.3,1.2,4,3,5.2,5.2c1.2,2.2,1.8,4.8,1.8,7.8V566.7z"/>
	<path class="st0" d="M1473.5,575.5c-1.3,2-3,3.5-4.9,4.5c-1.9,1-4.1,1.5-6.5,1.5c-3.1,0-5.8-0.6-7.9-1.8c-2.2-1.2-3.8-3-5-5.3
		c-1.2-2.3-1.7-5.1-1.7-8.4v-23.2c0-3.3,0.6-6.1,1.7-8.5c1.2-2.3,2.8-4.1,5-5.3c2.2-1.2,4.8-1.8,7.9-1.8c2.4,0,4.5,0.5,6.5,1.6
		c1.9,1,3.6,2.6,4.9,4.5c1.4,2,2.4,4.4,3,7.1h17.2c-1.1-6.2-3.1-11.4-5.9-15.8c-2.9-4.4-6.5-7.7-10.8-10c-4.4-2.3-9.3-3.4-14.9-3.4
		c-6.7,0-12.5,1.2-17.2,3.7c-4.8,2.5-8.4,6.1-10.9,10.8c-2.5,4.7-3.8,10.4-3.8,17V566c0,6.7,1.3,12.3,3.8,17
		c2.5,4.7,6.1,8.3,10.9,10.7c4.8,2.5,10.5,3.7,17.2,3.7c5.5,0,10.5-1.1,14.8-3.4c4.3-2.3,7.9-5.6,10.8-10c2.9-4.4,4.8-9.6,6-15.8
		h-17.2C1475.8,571.1,1474.8,573.5,1473.5,575.5"/>
	<polygon class="st0" points="1416.8,527.5 1416.8,512.2 1374.3,512.2 1363.7,512.2 1357.7,512.2 1357.7,596.6 1363.7,596.6 
		1374.3,596.6 1416.8,596.6 1416.8,581.3 1374.3,581.3 1374.3,562.3 1410.1,562.3 1410.1,547 1374.3,547 1374.3,527.5 	"/>
	<polygon class="st0" points="1348,512.2 1283.4,512.2 1283.4,527.5 1307.4,527.5 1307.4,596.6 1324,596.6 1324,527.5 1348,527.5 	
		"/>
	<polygon class="st0" points="1244.5,581.3 1244.5,512.2 1227.9,512.2 1227.9,596.6 1235.3,596.6 1244.5,596.6 1287,596.6 
		1287,581.3 	"/>
	<path class="st0" d="M1199.1,596.6h17.9l-33.7-84.5h-10.6l-33.7,84.5h17.9l5-13.5h32.3L1199.1,596.6z M1167.5,567.7l10.5-28.8
		l10.5,28.8H1167.5z"/>
	<polygon class="st0" points="1107.4,512.2 1090.6,569.1 1073.8,512.2 1051.9,512.2 1051.9,596.6 1067,596.6 1067,537.8 
		1083.3,587.2 1097.9,587.2 1114.2,536.6 1114.2,596.6 1129.3,596.6 1129.3,512.2 	"/>
	<polygon class="st0" points="1036.7,527.5 1036.7,512.2 994.3,512.2 983.7,512.2 977.7,512.2 977.7,596.6 983.7,596.6 994.3,596.6 
		1036.7,596.6 1036.7,581.3 994.3,581.3 994.3,562.3 1030.1,562.3 1030.1,547 994.3,547 994.3,527.5 	"/>
	<polygon class="st0" points="968,512.2 903.3,512.2 903.3,527.5 927.3,527.5 927.3,596.6 943.9,596.6 943.9,527.5 968,527.5 	"/>
	<path class="st0" d="M889,596.6h17.9l-33.7-84.5h-10.6l-33.7,84.5h17.9l5-13.5h32.3L889,596.6z M857.4,567.7l10.5-28.8l10.5,28.8
		H857.4z"/>
	<path class="st0" d="M806.2,512.2v54.3c0,4.8-1.4,8.6-4.1,11.3c-2.7,2.7-6.6,4-11.6,4c-4.9,0-8.8-1.3-11.5-4
		c-2.7-2.7-4.1-6.4-4.1-11.3v-54.3h-16.6v53.9c0,6.6,1.3,12.3,3.8,17c2.5,4.7,6.2,8.3,11,10.7c4.8,2.5,10.6,3.7,17.4,3.7
		c6.8,0,12.6-1.2,17.4-3.7c4.8-2.5,8.5-6,11-10.7c2.5-4.7,3.8-10.4,3.8-17v-53.9H806.2z"/>
	<path class="st0" d="M713.9,549.4v15.3h13.3v1.4c0,3.1-0.6,5.7-1.8,8c-1.2,2.2-2.9,4-5.2,5.1c-2.2,1.2-4.9,1.8-7.9,1.8
		c-3,0-5.7-0.5-8-1.6c-2.3-1.1-4.1-2.6-5.3-4.6c-1.3-2-1.9-4.3-1.9-7v-24.9c0-3,0.6-5.6,1.9-7.9c1.2-2.3,3-4,5.2-5.3
		c2.2-1.2,4.8-1.9,7.8-1.9c2,0,4,0.3,5.9,1c1.9,0.7,3.5,1.7,4.9,3c1.4,1.3,2.4,2.8,3,4.6h18c-1.1-5-3.1-9.4-6-13.2
		c-3-3.8-6.7-6.7-11.1-8.8c-4.4-2.1-9.3-3.1-14.6-3.1c-6.4,0-12,1.3-16.9,3.9c-4.9,2.6-8.6,6.3-11.3,11.1c-2.6,4.8-4,10.3-4,16.6
		v24.9c0,5.9,1.3,11.1,4,15.6c2.7,4.5,6.5,8,11.4,10.4c4.9,2.5,10.6,3.7,17,3.7c6.4,0,12-1.3,16.9-3.9c4.9-2.6,8.6-6.3,11.3-11.1
		c2.6-4.8,4-10.3,4-16.6v-16.5H713.9z"/>
	<path class="st0" d="M1240.4,419.5c-2.7-4.7-6.4-8.3-11.3-10.9c-4.9-2.6-10.5-3.9-16.9-3.9c-6.4,0-12,1.3-16.9,3.9
		c-4.9,2.6-8.6,6.2-11.3,10.9c-2.7,4.7-4,10.2-4,16.4v23.9c0,6.2,1.3,11.6,4,16.3c2.7,4.7,6.4,8.3,11.3,10.9
		c4.9,2.6,10.5,3.9,16.9,3.9c6.4,0,12-1.3,16.9-3.9c4.9-2.6,8.6-6.2,11.3-10.9c2.7-4.7,4-10.2,4-16.3v-23.9
		C1244.4,429.7,1243,424.2,1240.4,419.5 M1227.1,460.2c0,2.9-0.6,5.5-1.8,7.8c-1.2,2.2-3,4-5.2,5.2c-2.3,1.2-4.9,1.8-7.9,1.8
		c-3,0-5.6-0.6-7.9-1.8c-2.3-1.2-4-3-5.2-5.2c-1.2-2.2-1.8-4.8-1.8-7.8v-24.7c0-2.9,0.6-5.5,1.8-7.8c1.2-2.2,3-4,5.2-5.2
		c2.3-1.2,4.9-1.8,7.9-1.8c3,0,5.6,0.6,7.9,1.8c2.3,1.2,4,3,5.2,5.2c1.2,2.2,1.8,4.8,1.8,7.8V460.2z"/>
	<polygon class="st0" points="1174.5,405.6 1109.8,405.6 1109.8,420.9 1133.8,420.9 1133.8,490 1150.5,490 1150.5,420.9 
		1174.5,420.9 	"/>
	<path class="st0" d="M1087.1,405.6v54.3c0,4.8-1.4,8.6-4.1,11.3c-2.7,2.7-6.6,4-11.6,4c-4.9,0-8.8-1.3-11.5-4
		c-2.7-2.7-4.1-6.4-4.1-11.3v-54.3h-16.6v53.9c0,6.6,1.3,12.3,3.8,17c2.5,4.7,6.2,8.3,11,10.7c4.8,2.5,10.6,3.7,17.4,3.7
		c6.8,0,12.6-1.2,17.4-3.7c4.8-2.5,8.5-6,11-10.7c2.5-4.7,3.8-10.4,3.8-17v-53.9H1087.1z"/>
	<polygon class="st0" points="1033.3,405.6 968.6,405.6 968.6,420.9 992.6,420.9 992.6,490 1009.3,490 1009.3,420.9 1033.3,420.9 	
		"/>
	<rect x="940.5" y="405.6" class="st0" width="17.2" height="84.5"/>
	<polygon class="st0" points="932,405.6 867.3,405.6 867.3,420.9 891.3,420.9 891.3,490 908,490 908,420.9 932,420.9 	"/>
	<path class="st0" d="M860.5,451.6c-2.5-3.3-5.6-5.7-9.4-7.2c-3.7-1.5-8.4-2.8-14-3.8c-0.2,0-0.5-0.1-0.7-0.1
		c-0.2-0.1-0.5-0.1-0.7-0.1c-0.2,0-0.3-0.1-0.5-0.1c-0.2,0-0.3,0-0.5-0.1c-3.9-0.7-6.9-1.4-9-2.1c-2.1-0.7-3.9-1.7-5.4-3.1
		c-1.5-1.4-2.2-3.3-2.2-5.8v-0.1c0-2.9,1.4-5.2,4.2-6.8c2.8-1.6,6.7-2.4,11.8-2.4c3.4,0,6.9,0.6,10.6,1.9c3.7,1.2,7.2,3,10.6,5.2
		l7-13.5c-2.8-1.9-5.8-3.4-9-4.8c-3.2-1.3-6.4-2.3-9.7-3c-3.3-0.7-6.5-1-9.7-1c-6.9,0-12.7,1-17.6,3c-4.9,2-8.6,5-11.1,8.9
		c-2.5,3.9-3.8,8.5-3.8,14v0.1c0,6.2,1.4,10.9,4.1,14.3s6,5.7,9.9,7c3.9,1.3,8.8,2.4,14.7,3.3l1.3,0.2c0.1,0,0.2,0.1,0.3,0.1
		s0.2,0,0.3,0.1c3.4,0.5,6.1,1.1,8.2,1.7c2.1,0.6,3.9,1.6,5.2,2.9c1.3,1.3,2,3.1,2,5.3v0.1c0,3.2-1.5,5.7-4.5,7.5
		c-3,1.8-7.2,2.6-12.6,2.6c-4.7,0-9.3-0.7-13.7-2.2c-4.4-1.5-8.4-3.5-11.8-6.2l-7.7,13.1c2.8,2.2,6,4.1,9.5,5.7
		c3.5,1.6,7.3,2.8,11.3,3.6c4,0.8,8.1,1.2,12.3,1.2c7.1,0,13.1-1,18.2-3c5-2,8.9-4.9,11.5-8.8c2.6-3.8,3.9-8.4,3.9-13.8v-0.1
		C864.3,459.5,863,454.9,860.5,451.6"/>
	<polygon class="st0" points="767.7,405.6 767.7,467.4 736.3,405.6 716,405.6 716,490 731.9,490 731.9,429.1 763.1,490 783.6,490 
		783.6,405.6 	"/>
	<rect x="680.6" y="405.6" class="st0" width="17.2" height="84.5"/>
	<path class="st0" d="M593,87.6c-3-2.5-18.7,12.8-18.7,12.8s12.7-26.5,9-28.6c-3.7-2.1-17.6,21.6-17.6,21.6s11.8-38.8,7.8-40.1
		c-4.1-1.3-15.3,29.4-15.3,29.4s14.6-42.2,10.1-44.7c-4.5-2.5-20.1,43.4-20.1,43.4s9-61.6,2-63.5c-7.1-2-10.6,58.9-30.7,87.5
		c-8.9,12.8,0.7,75.4-6.5,91.1c1,2.2,4,4.3,6,4.1c5-0.5,9.1,1.1,12.9,3c0.4,0.2,0.7,0.4,1.1,0.6c0.7-0.1,1.4-0.2,2.1-0.4
		c2.7-0.4,5.5-0.9,8.4-2c2.3-0.9,5.9-2.2,7.6-2.9c4.7-8.5,9.1-25.2,13.4-41.3c6-22.6,11.7-44,19.4-50.4c1-0.8,2-1.7,3-2.6
		C590.5,97.7,594.7,89.1,593,87.6"/>
	<path class="st0" d="M714.1,884.9c-1.3,16-2.3,22.3-7.3,30.5c-10.8,17.6-29.1,23.5-51.9,22.2c-15.3-0.9-33.8-9.1-53.6-24.2
		c-18-13.7-50.5-56.1-61.7-93.8c-23.8-80,15.5-181.2,41.4-256.1c7.8-22.5,16.6-49.7,17.6-73.5c0.7-17.2,7.6-24.9,5.6-35.6
		c1,1.6,2.3,2.7,3.7,2.5c0,0,4-0.1,0.6-13.4c0,0,25.2,44.9,52,60.8c0,0,3.9,2,3.9-2.5c0,0-41.1-40.6-67.4-91
		c29.8,26.7,62.1,46.7,62.1,46.7c22.9,8,10.3-2,10.3-2c-33-22-65.4-56.8-89.3-86.6c-3.9-14.5-5.7-29.1-4.2-43.3
		c0.1-0.9-0.4-2.3-0.8-4.3c-0.2-1.3-0.5-2.7-0.7-4l-0.1,0c-1.9-9.5-5-23.6-7.9-27.9c0,0,0,0,0,0c-1.5-13.9-9.7-30.1-9.7-30.1
		s2.5,0.9,6.2,2.2c0,0,5.3,1.8,7.2,2.5l-1.5-5.6l10.6,5.7c-1.6-2.6-3.7-5.2-6-7.7l0,0c9.2,3.1,20.3,6.3,21.4,4.7
		c1.9-2.8-6.8-5-6.8-5s17.7-3.7,20.2-8.8c2.6-5-7.9-5.5-7.9-5.5s21.3-2.9,22-9c0.6-5.1-11-6.4-14.9-6.7c5.3,0.3,26.9,1.2,26.9-4.7
		c0-6.7-11.9-9.3-11.9-9.3s23.2-1.8,22.6-8.8c-0.6-7-14.2-5.7-14.2-5.7s20.7-2.2,21.1-7.8c0.5-5.6-11.6-8.5-11.6-8.5
		s21.3-5.1,19.7-12.2c-1.6-7-18.8-1.2-18.8-1.2s31.4-12.2,29-23.4c-0.8-3.7-19.5,4.9-19.5,4.9s21.5-18.7,18.9-23.1
		c-1.7-2.9-20.4,8.4-20.4,8.4s22.4-20.4,19.9-23.9c-2.4-3.6-23.7,8.3-23.7,8.3s21.5-24.6,18.3-27.8c-3.2-3.2-25.3,17.9-25.3,17.9
		s24.4-37.8,20.5-40.3c-3.9-2.5-25.2,26.9-25.2,26.9s28.3-40.7,24.3-44.5c-4-3.9-34.5,40.4-34.5,40.4s28.4-62.7,21.5-66.8
		c-6.9-4.1-29.3,59.5-59.2,84.2c-12.6,10.4-21.2,72.6-32.7,91.8c0,0-5.4,2-8.5,3.2c-4.4,1.7-8.6,2-12,2.7c-0.6-0.3-1.2-0.7-1.9-1
		c-3.5-1.7-7-3.1-11.3-2.7c-3.9,0.4-8.6-3.4-9.4-7c-0.3-1.6-0.8-2.8-2.7-3.3c-1.3-0.3-1.1-1-0.1-1.8c1.7-1.2,3.8-1.6,6.2-2.4
		c-1.8-0.4-3-0.2-4.3-0.1c-1.2,0.1-2.4,0.3-3.6,0.4c0-0.1-0.1-0.2,0-0.3c0.4-0.7,1.9-1,1.4-1.7c-0.7-1.1-1.9,0.1-3-0.1
		c-0.2-1,0.6-1.5,1.2-2.1c0.5-0.5,1.1-1,0.6-1.7c-0.4-0.7-1.2-0.3-1.7-0.1c-2.9,0.8-3.4,0.4-3-2.6c0.1-0.4,0.2-0.8-0.3-1
		c-0.4-0.1-0.7,0.2-1,0.5c-0.5,0.6-1,1.2-1.5,1.9c-0.9-0.9-0.5-1.9-0.6-2.8c-1.2-0.6-1.2-0.6-3.5,1.4c-0.1-0.4-0.3-0.7-0.4-1
		c-0.2-0.6,0-1.6-0.8-1.7c-1-0.1-1.2,0.9-1.6,1.6c-0.4,0.6-0.3,1.9-1.2,1.8c-1-0.1-1.5-1.2-2-2.1c-0.1-0.2-0.1-0.3-0.1-0.5
		c-0.1-0.6,0.3-1.4-0.6-1.5c-0.9-0.1-1,0.8-1.2,1.4c-0.3,0.8-0.4,1.6-0.6,2.5c-1,0-1.2-0.9-1.7-1.4c-0.7-0.7-1.3-1.7-2.5-1.3
		c-1.1,0.4-0.5,1.5-0.7,2.3c-1-0.7-1.9-1.3-3-2.1c-0.1,2.5-1.5,4.1-3.2,5.6c-2.6,2.2-4.5,4.9-6.3,7.7c-2,4.5-2.3,8.9-0.1,13.4
		c0.3,0.6-0.1,0.9-0.4,1.3c-2.5,4.7-1.9,8.9,2,13c-0.4-2.5,0.6-4.4,2.3-5.9c0.6-0.6,1-0.8,1.7,0.1c2.7,3.5,4.2,7.3,4.2,11.7
		c0,0.9,0,1.8,0,2.7l1.3,2.1c-8.6,12.4-16.2,39.1,24,82.6c8.3,9,14.8,13.5,19.7,14.7c-0.4-0.8,2,4,3.7,7.2
		c12.9,27.9,9.3,22.5,16.9,36.5c0,0,8.7,38.3,14.4,63.8l3.1,25.3c0.9-0.5,1.5-1.4,2-2.6c1.6,4.1,4.3,9.9,7.3,12.8
		c0.2,13.8,0.3,27.6-0.3,41.4c-1.1,25.1-9.7,48.2-17.9,71.8c-16.3,47.1-27.2,94.2-35,143.4c-6.7,42.4-6,78.4,13,117.7
		c18.9,39.1,50,76.1,91,92.5c20.2,8.1,46,11.8,66.5,1.6c13.8-6.8,26.2-19.4,27.3-41.3C715.9,880.8,715.5,868.4,714.1,884.9"/>
</g>
</svg>
